<svg width="567" height="566" viewBox="0 0 567 566" fill="none" xmlns="http://www.w3.org/2000/svg">
<path d="M561.915 215.38C536.466 86.162 408.401 11.1991 300.552 1.24616C211.206 -7.01289 94.5169 25.6023 53.2718 104.434C27.332 153.999 58.4938 169.745 37.2749 282.064C18.9125 379.268 -13.2216 414.078 7.14539 463.623C23.8038 504.126 62.7236 523.29 87.611 535.539C185.667 583.8 334.651 578.137 441.898 490.094C467.006 469.486 590.702 361.537 561.915 215.38Z" fill="#CADDFF"/>
<path d="M413.855 543.276H159.95C149.014 543.276 141.256 534.436 142.64 523.531L205.154 29.5013C206.537 18.5961 216.53 9.7457 227.475 9.7457L468.632 6.9292C496.315 6.9292 500.064 18.5961 498.681 29.5013L436.167 523.531C434.784 534.436 424.801 543.276 413.855 543.276Z" fill="black"/>
<path d="M398.58 543.277H144.674C133.729 543.277 125.981 534.406 127.364 523.461L189.879 27.868C191.262 16.9227 201.255 8.05225 212.19 8.05225H466.096C477.041 8.05225 484.789 16.9227 483.406 27.868L420.891 523.461C419.508 534.406 409.515 543.277 398.58 543.277Z" fill="white"/>
<path d="M212.189 9.06448C201.765 9.06448 192.213 17.5641 190.89 27.9881L128.376 523.591C127.744 528.613 129.107 533.324 132.215 536.852C135.282 540.34 139.712 542.254 144.673 542.254H398.579C409.003 542.254 418.555 533.765 419.878 523.331L482.392 27.7376C483.024 22.7059 481.661 17.9951 478.553 14.477C475.486 10.9889 471.056 9.06448 466.095 9.06448H212.189ZM398.579 544.299H144.673C139.11 544.299 134.139 542.134 130.681 538.205C127.173 534.236 125.639 528.954 126.341 523.331L188.865 27.7376C190.309 16.3212 200.773 7.02979 212.189 7.02979H466.095C471.658 7.02979 476.629 9.19478 480.087 13.1238C483.595 17.093 485.129 22.3752 484.427 27.9881L421.903 523.591C420.459 535.008 409.995 544.299 398.579 544.299Z" fill="black"/>
<path d="M141.827 524.142L201.525 50.9309C201.846 48.4051 204.151 46.3604 206.677 46.3604H461.946C464.471 46.3604 466.266 48.4051 465.945 50.9309L406.247 524.142C405.926 526.668 403.621 528.723 401.095 528.723H145.826C143.301 528.723 141.506 526.668 141.827 524.142Z" fill="#CADDFF"/>
<path d="M335.965 33.26C331.865 33.26 328.959 29.9323 329.48 25.8329C329.991 21.7334 333.74 18.4058 337.839 18.4058C341.929 18.4058 344.835 21.7334 344.324 25.8329C343.803 29.9323 340.064 33.26 335.965 33.26Z" fill="#CADDFF"/>
<path d="M424.108 217.165C430.273 217.165 434.583 222.156 433.751 228.31L423.357 305.057C422.525 311.222 416.862 316.213 410.697 316.213H233.729C227.575 316.213 223.255 311.222 224.097 305.057L234.491 228.31C235.323 222.156 240.986 217.165 247.15 217.165H424.108Z" fill="white"/>
<path d="M267.959 317.235H233.73C230.482 317.235 227.575 315.962 225.561 313.657C223.516 311.311 222.634 308.214 223.085 304.917L233.479 228.17C234.381 221.534 240.505 216.132 247.151 216.132H288.877C289.438 216.132 289.899 216.593 289.899 217.154C289.899 217.726 289.438 218.187 288.877 218.187H247.151C241.497 218.187 236.265 222.787 235.504 228.45L225.11 305.197C224.739 307.894 225.45 310.419 227.094 312.304C228.718 314.158 231.073 315.19 233.73 315.19H267.959C268.53 315.19 268.981 315.641 268.981 316.213C268.981 316.774 268.53 317.235 267.959 317.235Z" fill="black"/>
<path d="M410.697 317.235H285.308C284.746 317.235 284.285 316.774 284.285 316.213C284.285 315.642 284.746 315.191 285.308 315.191H410.697C416.35 315.191 421.572 310.58 422.344 304.917L432.738 228.18C433.108 225.474 432.397 222.948 430.753 221.063C429.129 219.209 426.774 218.187 424.108 218.187H389.438C388.876 218.187 388.415 217.726 388.415 217.154C388.415 216.593 388.876 216.142 389.438 216.142H424.108C427.375 216.142 430.272 217.405 432.287 219.72C434.331 222.056 435.213 225.153 434.762 228.45L424.368 305.198C423.476 311.833 417.342 317.235 410.697 317.235Z" fill="black"/>
<path d="M392.254 250.411H290.62C287.733 250.411 285.719 248.076 286.11 245.199C286.5 242.312 289.157 239.977 292.033 239.977H393.668C396.554 239.977 398.569 242.312 398.178 245.199C397.787 248.076 395.141 250.411 392.254 250.411Z" fill="#99B9FF"/>
<path d="M275.927 245.199C275.536 248.076 272.88 250.411 270.004 250.411C267.117 250.411 265.102 248.076 265.493 245.199C265.884 242.312 268.53 239.977 271.417 239.977C274.294 239.977 276.318 242.312 275.927 245.199Z" fill="#CADDFF"/>
<path d="M389.208 272.893H287.573C284.697 272.893 282.672 270.558 283.063 267.681C283.454 264.794 286.11 262.459 288.987 262.459H390.621C393.508 262.459 395.522 264.794 395.131 267.681C394.751 270.558 392.094 272.893 389.208 272.893Z" fill="#CADDFF"/>
<path d="M272.879 267.681C272.488 270.558 269.842 272.893 266.955 272.893C264.069 272.893 262.054 270.558 262.445 267.681C262.836 264.794 265.482 262.459 268.369 262.459C271.255 262.459 273.27 264.794 272.879 267.681Z" fill="#CADDFF"/>
<path d="M386.161 295.375H284.537C281.65 295.375 279.626 293.04 280.017 290.163C280.407 287.276 283.064 284.941 285.95 284.941H387.575C390.461 284.941 392.476 287.276 392.095 290.163C391.704 293.04 389.048 295.375 386.161 295.375Z" fill="#CADDFF"/>
<path d="M269.842 290.163C269.442 293.04 266.795 295.375 263.909 295.375C261.032 295.375 259.008 293.04 259.398 290.163C259.789 287.276 262.445 284.941 265.322 284.941C268.209 284.941 270.223 287.276 269.842 290.163Z" fill="#CADDFF"/>
<path d="M506.889 92.5669C513.043 92.5669 517.363 97.5584 516.521 103.723L506.127 180.46C505.295 186.624 499.632 191.615 493.468 191.615H217.742C211.588 191.615 207.268 186.624 208.1 180.46L218.494 103.723C219.336 97.5584 224.999 92.5669 231.163 92.5669H506.889Z" fill="white"/>
<path d="M251.972 192.648H217.743C214.485 192.648 211.579 191.375 209.564 189.069C207.519 186.724 206.647 183.627 207.088 180.329L217.482 103.582C218.384 96.9469 224.519 91.5444 231.154 91.5444H272.88C273.441 91.5444 273.902 92.0055 273.902 92.5668C273.902 93.1381 273.441 93.5992 272.88 93.5992H231.154C225.501 93.5992 220.279 98.1998 219.507 103.863L209.113 180.61C208.752 183.306 209.454 185.832 211.108 187.716C212.721 189.571 215.077 190.603 217.743 190.603H251.972C252.533 190.603 252.984 191.054 252.984 191.625C252.984 192.187 252.533 192.648 251.972 192.648Z" fill="black"/>
<path d="M493.467 192.648H269.31C268.749 192.648 268.288 192.187 268.288 191.626C268.288 191.054 268.749 190.603 269.31 190.603H493.467C499.121 190.603 504.343 185.993 505.114 180.329L515.508 103.592C515.869 100.886 515.168 98.3604 513.524 96.476C511.9 94.6117 509.535 93.5994 506.878 93.5994H472.208C471.637 93.5994 471.186 93.1383 471.186 92.577C471.186 92.0057 471.637 91.5547 472.208 91.5547H506.878C510.136 91.5547 513.043 92.8176 515.057 95.1229C517.102 97.4683 517.974 100.565 517.533 103.863L507.139 180.61C506.237 187.245 500.103 192.648 493.467 192.648Z" fill="black"/>
<path d="M475.025 125.824H274.623C271.747 125.824 269.722 123.489 270.113 120.602C270.504 117.725 273.16 115.38 276.046 115.38H476.439C479.325 115.38 481.34 117.725 480.949 120.602C480.558 123.489 477.912 125.824 475.025 125.824Z" fill="#99B9FF"/>
<path d="M259.94 120.602C259.549 123.488 256.893 125.824 254.006 125.824C251.13 125.824 249.105 123.488 249.496 120.602C249.887 117.725 252.543 115.39 255.42 115.39C258.306 115.39 260.321 117.725 259.94 120.602Z" fill="#CADDFF"/>
<path d="M471.978 148.306H271.586C268.7 148.306 266.685 145.97 267.066 143.094C267.467 140.207 270.113 137.872 272.989 137.872H473.392C476.268 137.872 478.293 140.207 477.902 143.094C477.511 145.97 474.865 148.306 471.978 148.306Z" fill="#CADDFF"/>
<path d="M256.882 143.094C256.501 145.97 253.845 148.306 250.968 148.306C248.081 148.306 246.057 145.97 246.448 143.094C246.839 140.207 249.495 137.872 252.371 137.872C255.258 137.872 257.283 140.207 256.882 143.094Z" fill="#CADDFF"/>
<path d="M468.932 170.788H268.54C265.653 170.788 263.639 168.452 264.029 165.566C264.42 162.689 267.066 160.354 269.953 160.354H470.345C473.232 160.354 475.247 162.689 474.856 165.566C474.475 168.452 471.819 170.788 468.932 170.788Z" fill="#CADDFF"/>
<path d="M253.845 165.576C253.455 168.452 250.798 170.788 247.912 170.788C245.035 170.788 243.01 168.452 243.401 165.576C243.792 162.689 246.448 160.354 249.325 160.354C252.212 160.354 254.226 162.689 253.845 165.576Z" fill="#CADDFF"/>
<path d="M471.808 364.093C477.962 364.093 482.282 369.085 481.45 375.249L471.046 451.996C470.214 458.15 464.551 463.152 458.387 463.152H230.942C224.788 463.152 220.478 458.15 221.31 451.996L231.704 375.249C232.536 369.085 238.209 364.093 244.363 364.093H471.808Z" fill="white"/>
<path d="M439.945 397.35H287.835C284.958 397.35 282.933 395.015 283.324 392.128C283.715 389.251 286.371 386.916 289.248 386.916H441.359C444.245 386.916 446.26 389.251 445.869 392.128C445.478 395.015 442.832 397.35 439.945 397.35Z" fill="#CADDFF"/>
<path d="M273.14 392.128C272.749 395.015 270.093 397.35 267.217 397.35C264.33 397.35 262.315 395.015 262.706 392.128C263.097 389.251 265.743 386.916 268.63 386.916C271.507 386.916 273.531 389.251 273.14 392.128Z" fill="#CADDFF"/>
<path d="M436.897 419.832H284.796C281.909 419.832 279.895 417.497 280.276 414.61C280.667 411.733 283.323 409.398 286.199 409.398H438.32C441.197 409.398 443.222 411.733 442.831 414.61C442.44 417.497 439.784 419.832 436.897 419.832Z" fill="#CADDFF"/>
<path d="M270.094 414.61C269.703 417.497 267.057 419.832 264.17 419.832C261.284 419.832 259.269 417.497 259.66 414.61C260.051 411.733 262.707 409.398 265.583 409.398C268.47 409.398 270.485 411.733 270.094 414.61Z" fill="#CADDFF"/>
<path d="M433.861 442.314H281.74C278.863 442.314 276.839 439.979 277.229 437.092C277.62 434.215 280.276 431.88 283.153 431.88H435.274C438.151 431.88 440.165 434.215 439.774 437.092C439.394 439.979 436.737 442.314 433.861 442.314Z" fill="#CADDFF"/>
<path d="M267.055 437.092C266.654 439.979 264.008 442.314 261.122 442.314C258.245 442.314 256.22 439.979 256.611 437.092C257.002 434.215 259.658 431.88 262.535 431.88C265.422 431.88 267.436 434.215 267.055 437.092Z" fill="#CADDFF"/>
<path d="M53.0123 170.587C29.8388 177.102 0 202.2 0 247.725C0 280.521 48.3014 308.295 48.3014 308.295L56.2698 288.739C56.2698 288.739 29.6484 269.024 30.9213 246.001C31.9437 227.548 61.7023 221.815 61.7023 221.815L53.0123 170.587Z" fill="#5479F7"/>
<path d="M62.7847 544.71H79.4431V525.155H62.7847V544.71Z" fill="#5479F7"/>
<path d="M107.107 541.092L123.314 544.92L127.815 525.886L111.597 522.058L107.107 541.092Z" fill="#5479F7"/>
<path d="M49.0224 282.495C49.0224 282.495 44.051 321.836 47.8698 337.101C51.6886 352.376 60.6092 493.502 60.6092 531.68H83.0609L93.2043 351.314L124.527 416.755C126.802 422.067 127.383 427.951 126.18 433.594L107.688 531.68L128.686 533.123L163.797 425.435C165.361 420.093 165.481 414.429 164.128 409.027L135.652 295.104L49.0224 282.495Z" fill="black"/>
<path d="M92.1132 348.347C91.8125 348.347 91.5218 348.217 91.3213 347.966L79.7346 333.483C79.3738 333.042 79.4439 332.4 79.885 332.039C80.326 331.689 80.9775 331.759 81.3283 332.2L92.915 346.683C93.2658 347.134 93.1957 347.776 92.7546 348.127C92.5642 348.277 92.3337 348.347 92.1132 348.347Z" fill="white"/>
<path d="M61.7031 540.37H81.2482L84.1549 555.134C84.7062 557.981 82.6514 560.647 79.9051 560.647H63.0462C60.2999 560.647 58.2451 557.981 58.7964 555.134L61.7031 540.37Z" fill="white"/>
<path d="M62.5438 541.392L59.8075 555.325C59.587 556.437 59.8576 557.57 60.5592 558.422C61.2007 559.203 62.0827 559.624 63.045 559.624H79.9038C80.8661 559.624 81.7481 559.203 82.3896 558.422C83.0912 557.57 83.3618 556.437 83.1513 555.325L80.405 541.392H62.5438ZM79.9038 561.669H63.045C61.4814 561.669 60.008 560.958 58.9856 559.725C57.8931 558.392 57.4621 556.648 57.7928 554.934L60.6996 540.17C60.7898 539.688 61.2107 539.348 61.7019 539.348H81.2469C81.7381 539.348 82.1591 539.688 82.2493 540.17L85.156 554.934C85.4867 556.648 85.0557 558.392 83.9632 559.725C82.9409 560.958 81.4675 561.669 79.9038 561.669Z" fill="black"/>
<path d="M81.9793 556.968H61.7025C61.1312 556.968 60.6802 556.507 60.6802 555.936C60.6802 555.374 61.1312 554.923 61.7025 554.923H81.9793C82.5406 554.923 83.0017 555.374 83.0017 555.936C83.0017 556.507 82.5406 556.968 81.9793 556.968Z" fill="black"/>
<path d="M106.596 536.02L101.244 553.801C100.312 556.888 102.196 560.156 104.962 560.256L141.747 561.499C144.023 561.579 144.935 558.051 143.01 556.597C137.026 552.107 129.058 545.853 126.873 542.896C121.801 536.02 116.74 542.034 116.74 542.034C116.74 542.034 113.111 536.02 106.596 536.02Z" fill="white"/>
<path d="M107.348 537.072L102.226 554.092C101.825 555.415 102.046 556.898 102.808 557.961C103.379 558.752 104.151 559.203 105.003 559.233L141.787 560.476C142.489 560.506 142.81 559.835 142.91 559.544C143.141 558.883 143.08 557.93 142.399 557.419C136.175 552.749 128.286 546.534 126.051 543.497C124.678 541.643 123.215 540.671 121.711 540.621C119.416 540.55 117.532 542.665 117.522 542.685C117.301 542.946 116.98 543.066 116.66 543.046C116.329 543.026 116.028 542.846 115.858 542.565C115.828 542.505 112.73 537.513 107.348 537.072ZM141.818 562.521C141.787 562.521 141.747 562.521 141.717 562.521L104.932 561.278C103.459 561.228 102.076 560.456 101.154 559.153C100.011 557.56 99.6804 555.445 100.262 553.5L105.614 535.729C105.744 535.298 106.145 534.998 106.596 534.998C111.949 534.998 115.457 538.636 116.88 540.47C117.892 539.628 119.666 538.496 121.781 538.576C123.946 538.646 125.931 539.899 127.695 542.284C129.329 544.499 134.982 549.291 143.622 555.786C145.145 556.928 145.326 558.833 144.835 560.226C144.333 561.649 143.181 562.521 141.818 562.521Z" fill="black"/>
<path d="M137.738 555.936L104.421 554.492L137.738 555.936Z" fill="white"/>
<path d="M137.737 556.968C137.727 556.968 137.707 556.968 137.687 556.968L104.38 555.515C103.819 555.485 103.378 555.013 103.398 554.452C103.428 553.881 103.879 553.45 104.471 553.47L137.777 554.923C138.349 554.943 138.78 555.424 138.76 555.986C138.73 556.537 138.279 556.968 137.737 556.968Z" fill="black"/>
<path d="M87.0412 160.443L68.9395 172.762L118.794 170.376L104.421 161.175L102.487 152.265C105.043 151.884 108.551 151.623 109.663 150.24C111.638 147.774 110.746 139.275 110.746 139.275L112.901 137.581C113.131 137.46 113.302 137.26 113.372 137.009C113.442 136.759 113.402 136.498 113.272 136.278C111.427 133.351 109.703 132.409 108.892 129.432C108.09 126.495 108.441 126.936 105.283 120.612L86.3195 120.582L86.2093 134.794C86.2093 134.794 83.3026 132.91 81.4583 135.456C80.1253 137.3 83.0821 143.474 85.4976 143.474L87.0412 160.443Z" fill="white"/>
<path d="M83.9946 135.145C83.4233 135.145 82.7919 135.356 82.2907 136.057C82 136.448 82.1103 137.982 83.0525 139.826C83.8844 141.47 84.9468 142.452 85.4981 142.452C86.0193 142.452 86.4603 142.853 86.5104 143.384L88.064 160.353C88.0941 160.724 87.9237 161.085 87.623 161.295L72.5182 171.569L115.537 169.504L103.87 162.027C103.64 161.887 103.48 161.656 103.429 161.386L101.495 152.475C101.435 152.204 101.485 151.914 101.645 151.673C101.806 151.443 102.056 151.292 102.337 151.252C102.718 151.192 103.119 151.132 103.53 151.082C105.494 150.821 108.17 150.46 108.862 149.598C110.115 148.045 110.055 142.512 109.724 139.385C109.694 139.034 109.834 138.693 110.115 138.473L112.27 136.779C112.29 136.759 112.32 136.739 112.34 136.729C111.719 135.746 111.107 135.005 110.526 134.293C109.473 133 108.471 131.787 107.9 129.692C107.79 129.292 107.709 128.951 107.629 128.65C107.168 126.886 107.058 126.465 104.652 121.634L87.3323 121.604L87.2321 134.804C87.2321 135.175 87.0316 135.516 86.7009 135.696C86.3701 135.877 85.9692 135.857 85.6585 135.656C85.5382 135.576 84.8165 135.145 83.9946 135.145ZM68.9399 173.784C68.4989 173.784 68.108 173.504 67.9677 173.083C67.8273 172.652 67.9877 172.17 68.3686 171.92L85.9692 159.942L84.5459 144.316C82.842 143.675 81.6091 141.51 81.2283 140.758C80.256 138.854 79.5945 136.298 80.6369 134.854C81.9599 133.03 83.7841 132.89 85.2074 133.261L85.2976 120.571C85.3077 120.01 85.7587 119.559 86.32 119.559L105.284 119.589C105.675 119.589 106.025 119.81 106.196 120.15C108.892 125.553 109.072 126.104 109.604 128.139C109.684 128.44 109.774 128.77 109.874 129.161C110.325 130.825 111.117 131.787 112.109 132.99C112.721 133.752 113.423 134.594 114.134 135.736C114.425 136.197 114.505 136.759 114.355 137.28C114.224 137.771 113.904 138.182 113.473 138.433L111.819 139.736C111.999 141.84 112.39 148.476 110.466 150.871C109.253 152.385 106.476 152.756 103.8 153.106C103.78 153.116 103.75 153.116 103.72 153.116L105.334 160.544L119.346 169.514C119.717 169.755 119.897 170.206 119.777 170.637C119.667 171.068 119.286 171.369 118.845 171.389L68.99 173.784C68.97 173.784 68.96 173.784 68.9399 173.784Z" fill="black"/>
<path d="M84.565 149.829C88.3838 151.102 92.1525 148.115 92.834 147.574C95.4902 145.469 97.6552 141.72 96.5927 140.056C96.0013 139.144 94.9589 139.646 93.5858 138.553C91.5611 136.949 90.9898 133.471 92.0823 132.549C92.9744 131.777 94.3776 133.241 95.841 132.549C97.6251 131.687 96.713 128.951 98.0962 126.535C100.351 122.586 105.614 124.962 109.663 120.762C112.299 118.026 113.452 113.455 111.938 110.869C111.497 110.117 110.826 109.446 109.863 108.925C103.499 105.417 102.546 110.208 96.3522 110.268C83.5927 110.378 77.3383 112.934 75.033 118.216C73.4594 121.804 75.3738 127.518 76.3059 130.294C76.6066 131.216 77.2581 132.96 77.8094 135.556C78.4008 138.393 78.2203 139.114 78.5611 140.808C78.7917 142.001 80.0646 148.326 84.565 149.829Z" fill="black"/>
<path d="M137.739 167.69C137.739 167.69 94.2883 155.372 53.0131 170.587C49.8358 188.889 47.6507 204.696 46.1272 217.215C43.4511 239.255 45.1249 232.219 41.7872 264.383C39.7124 284.379 39.1612 286.214 41.0656 289.742C50.6376 307.503 89.2367 306.541 104.061 302.782C105.113 302.511 109.473 301.369 116.6 299.564C124.759 297.51 131.454 295.886 135.924 294.814C138.35 293.711 141.618 291.777 143.893 288.288C148.995 280.49 145.587 270.407 143.893 263.662C139.553 246.352 145.256 245.981 143.893 214.408C143.412 203.373 142.028 187.326 137.739 167.69Z" fill="#5479F7"/>
<path d="M234.61 152.535L239.622 130.845L253.604 118.437C253.604 118.437 261.553 118.567 248.532 132.198C248.532 132.198 254.757 144.376 250.728 149.218C249.565 150.621 242.859 159.331 242.859 159.331L234.61 152.535Z" fill="white"/>
<path d="M235.745 152.154L242.701 157.867C244.415 155.642 248.985 149.719 249.947 148.556C252.894 145.018 249.266 135.887 247.622 132.659C247.421 132.278 247.492 131.807 247.802 131.487C255.4 123.528 255.149 120.832 254.889 120.2C254.708 119.769 254.257 119.579 253.926 119.509L240.546 131.396L235.745 152.154ZM242.861 160.353C242.63 160.353 242.4 160.273 242.209 160.123L233.96 153.327C233.66 153.076 233.529 152.685 233.61 152.305L238.631 130.615C238.671 130.404 238.782 130.224 238.942 130.073L252.924 117.665C253.115 117.494 253.345 117.424 253.616 117.414C254.488 117.424 256.132 117.865 256.773 119.409C257.846 121.975 255.55 126.224 249.767 132.389C251.04 135.085 255.4 145.208 251.521 149.869C250.378 151.242 243.743 159.872 243.673 159.952C243.502 160.173 243.252 160.313 242.981 160.353C242.941 160.353 242.901 160.353 242.861 160.353Z" fill="black"/>
<path d="M247.812 158.279L232.597 148.135C232.597 148.135 216.67 183.627 192.043 187.245C167.426 190.874 155.84 166.969 123.976 164.794L123.254 208.976C123.254 208.976 154.396 236.509 181.91 235.056C209.433 233.612 238.4 185.802 247.812 158.279Z" fill="#5479F7"/>
<path d="M58.2551 302.842C58.205 302.842 58.1549 302.832 58.1048 302.832C57.8943 302.802 36.4047 299.444 39.1912 279.458C39.2713 278.897 39.7925 278.516 40.3438 278.586C40.9051 278.666 41.296 279.187 41.2158 279.739C38.71 297.73 57.5936 300.687 58.4055 300.807C58.9568 300.887 59.3477 301.409 59.2675 301.97C59.1973 302.471 58.7563 302.842 58.2551 302.842Z" fill="white"/>
<path d="M108.58 285.943C108.319 285.943 108.049 285.843 107.848 285.633C107.457 285.232 107.457 284.59 107.858 284.189C124.577 267.711 128.145 241.892 128.175 241.631C128.245 241.07 128.766 240.669 129.318 240.749C129.879 240.829 130.28 241.34 130.2 241.902C130.17 242.162 126.511 268.673 109.301 285.643C109.101 285.843 108.84 285.943 108.58 285.943Z" fill="white"/>
<path d="M492.876 537.022C492.876 537.022 507.029 541.953 515.278 539.768C515.278 539.768 525.552 548.699 525.421 553.43L489.479 552.728L492.876 537.022Z" fill="white"/>
<path d="M490.741 551.736L524.248 552.388C523.336 549.18 518.445 543.948 515.007 540.891C507.801 542.505 497.086 539.448 493.638 538.355L490.741 551.736ZM526.413 554.473L488.215 553.731L492.124 535.679L493.207 536.06C493.347 536.11 507.159 540.861 515.017 538.776L515.538 538.636L515.949 538.997C517.042 539.939 526.584 548.399 526.444 553.46L526.413 554.473Z" fill="black"/>
<path d="M508.283 538.135C508.283 538.135 517.154 527.54 521.073 527.36C524.38 527.199 550.731 551.495 559.12 559.594C560.604 561.027 559.972 563.583 557.988 564.084C553.056 565.337 541.76 565.307 516.422 556.547C515.099 556.096 514.137 554.923 513.936 553.53L512.854 545.752L518.176 545.081L508.283 538.135Z" fill="white"/>
<path d="M514.006 546.634L514.959 553.39C515.089 554.412 515.78 555.254 516.753 555.585C542.763 564.576 553.588 564.145 557.737 563.092C558.529 562.892 558.78 562.23 558.86 561.96C559.01 561.358 558.85 560.757 558.409 560.326C546.922 549.23 524.029 528.673 521.093 528.382C518.767 528.492 513.225 533.995 509.787 537.944L518.757 544.249C519.098 544.489 519.258 544.92 519.158 545.331C519.058 545.742 518.717 546.043 518.296 546.093L514.006 546.634ZM552.375 565.698C545.609 565.698 534.454 563.864 516.091 557.519C514.387 556.928 513.174 555.455 512.924 553.67L511.841 545.893C511.801 545.622 511.871 545.351 512.042 545.131C512.202 544.91 512.453 544.77 512.723 544.74L515.41 544.399L507.692 538.977C507.461 538.816 507.311 538.556 507.271 538.275C507.231 537.994 507.311 537.704 507.501 537.483C508.433 536.361 516.773 526.538 521.023 526.337C521.043 526.337 521.063 526.337 521.073 526.337C525.864 526.337 559.491 558.532 559.832 558.852C560.794 559.795 561.175 561.178 560.834 562.481C560.484 563.784 559.511 564.746 558.238 565.077C556.795 565.448 554.891 565.698 552.375 565.698Z" fill="black"/>
<path d="M534.252 562.962C534.151 562.962 534.041 562.952 533.941 562.912C533.4 562.741 533.099 562.17 533.269 561.629L535.535 554.462C535.695 553.931 536.266 553.63 536.818 553.801C537.349 553.971 537.649 554.542 537.479 555.084L535.224 562.25C535.084 562.681 534.683 562.962 534.252 562.962Z" fill="black"/>
<path d="M529.812 561.037C529.712 561.037 529.601 561.027 529.511 560.987C528.97 560.827 528.669 560.246 528.84 559.714L531.095 552.548C531.265 552.007 531.837 551.706 532.378 551.876C532.919 552.047 533.22 552.618 533.039 553.159L530.794 560.326C530.654 560.767 530.243 561.037 529.812 561.037Z" fill="black"/>
<path d="M553.628 561.188C553.387 561.188 553.157 561.108 552.956 560.947L519.289 532.151C518.858 531.79 518.807 531.138 519.178 530.717C519.549 530.286 520.191 530.236 520.622 530.597L554.289 559.384C554.72 559.754 554.77 560.406 554.399 560.837C554.199 561.067 553.908 561.188 553.628 561.188Z" fill="black"/>
<path d="M375.516 558.903C375.486 555.535 375.436 550.192 375.335 543.347L365.302 544.78L356.993 537.152C356.993 537.152 333.168 545.872 321.632 556.888C319.487 558.943 320.569 562.591 323.496 563.042C332.296 564.385 352.673 565.648 371.507 563.503C373.812 563.233 375.536 561.248 375.516 558.903Z" fill="white"/>
<path d="M356.773 538.325C353.065 539.749 332.597 547.827 322.344 557.63C321.602 558.331 321.341 559.334 321.652 560.306C321.943 561.238 322.695 561.88 323.657 562.03C332.547 563.383 352.604 564.626 371.387 562.481C373.181 562.281 374.514 560.737 374.504 558.913C374.464 555.735 374.414 550.814 374.324 544.53L365.443 545.792C365.142 545.833 364.842 545.742 364.611 545.532L356.773 538.325ZM349.567 565.678C338.531 565.678 328.839 564.887 323.346 564.055C321.622 563.784 320.229 562.591 319.708 560.917C319.166 559.213 319.637 557.389 320.93 556.146C332.487 545.111 355.671 536.551 356.643 536.19C357.004 536.06 357.405 536.14 357.685 536.401L365.634 543.698L375.186 542.334C375.476 542.294 375.777 542.385 375.997 542.575C376.218 542.765 376.348 543.046 376.358 543.337C376.449 550.183 376.509 555.515 376.539 558.893C376.569 561.769 374.454 564.195 371.617 564.516C364.22 565.358 356.623 565.678 349.567 565.678Z" fill="black"/>
<path d="M347.291 560.667C340.575 560.667 332.837 560.376 325.41 559.464C324.849 559.384 324.448 558.883 324.518 558.321C324.588 557.76 325.1 557.359 325.661 557.429C344.695 559.785 365.824 557.91 366.034 557.89C366.585 557.85 367.086 558.261 367.147 558.823C367.197 559.384 366.786 559.885 366.214 559.935C366.084 559.945 357.985 560.667 347.291 560.667Z" fill="black"/>
<path d="M342.571 554.432C342.1 554.432 341.679 554.101 341.579 553.62L339.675 544.559C339.564 544.008 339.915 543.467 340.466 543.346C341.018 543.226 341.559 543.587 341.679 544.138L343.574 553.209C343.694 553.76 343.343 554.302 342.782 554.412C342.712 554.432 342.641 554.432 342.571 554.432Z" fill="black"/>
<path d="M347.01 552.518C346.529 552.518 346.108 552.177 346.007 551.706L344.113 542.635C343.993 542.084 344.343 541.543 344.905 541.432C345.446 541.312 345.997 541.663 346.108 542.224L348.012 551.285C348.122 551.836 347.771 552.378 347.22 552.488C347.15 552.508 347.07 552.518 347.01 552.518Z" fill="black"/>
<path d="M446.86 450.413C446.369 450.012 401.205 417.346 388.876 420.854C367.798 426.848 371.907 490.254 372.338 507.023C372.769 523.351 449.386 474.338 451.751 470.038C454.087 465.788 455.52 457.76 446.86 450.413Z" fill="black"/>
<path d="M373.041 502.803C372.971 502.863 372.9 502.923 372.83 502.984C359.62 514.921 354.177 526.798 355.119 542.074C356.041 557.018 377.05 567.683 445.017 559.905C459.31 557.84 487.976 556.186 500.374 555.795C502.95 555.715 504.975 553.56 504.935 550.964L504.765 539.137C504.744 537.463 503.862 535.94 502.439 535.088C494.942 530.617 475.587 519.201 443.694 520.434C442.641 520.474 442.822 519.351 443.844 519.121C461.344 515.232 488.367 513.418 495.924 507.003C510.548 494.594 507.842 472.563 504.664 459.122C495.423 419.892 437.71 460.846 437.309 460.947C437.299 460.947 437.309 460.947 437.309 460.947C437.189 461.007 429.491 465.527 419.337 471.741L373.041 502.803Z" fill="black"/>
<path d="M404.684 528.844C404.333 528.844 404.002 528.663 403.812 528.352C403.511 527.871 403.662 527.24 404.143 526.949C404.674 526.628 417.353 519.071 448.264 518.339C448.274 518.339 448.284 518.339 448.294 518.339C448.846 518.339 449.297 518.78 449.307 519.342C449.327 519.903 448.876 520.374 448.315 520.384C418.035 521.106 405.335 528.613 405.215 528.693C405.045 528.793 404.864 528.844 404.684 528.844Z" fill="white"/>
<path d="M376.818 500.719C376.508 500.719 376.207 500.578 376.006 500.318C375.666 499.877 375.746 499.225 376.187 498.884C376.558 498.594 413.423 470.238 439.222 463.793C439.774 463.653 440.325 463.994 440.465 464.535C440.605 465.086 440.265 465.638 439.723 465.778C414.335 472.123 377.811 500.217 377.44 500.508C377.249 500.648 377.039 500.719 376.818 500.719Z" fill="#CADDFF"/>
<path d="M512.972 374.598C518.415 379.409 537.92 404.637 534.733 447.145C534.683 447.786 534.833 448.438 535.174 448.989C536.918 451.746 542.21 460.847 540.506 466.57C538.541 473.185 531.826 487.588 529.871 467.111C529.821 466.62 529.17 466.5 528.959 466.941C528.148 468.655 526.834 471 525.972 470.679C523.948 469.938 524.659 459.143 525.201 452.768C525.742 446.403 526.594 443.887 520.319 428.492C516.451 419 503.641 403.314 498.8 398.423C498.8 398.423 512.381 374.076 512.972 374.598Z" fill="white"/>
<path d="M529.381 465.648C529.472 465.648 529.562 465.658 529.652 465.668C530.323 465.788 530.815 466.329 530.885 467.011C531.767 476.212 533.461 476.643 533.651 476.663C533.661 476.663 533.681 476.663 533.701 476.663C535.094 476.663 537.951 471.581 539.535 466.279C541.108 460.957 535.936 452.116 534.313 449.531C533.852 448.799 533.641 447.947 533.711 447.065C536.628 408.095 520.05 382.947 513.024 376.051C510.989 378.978 504.384 390.524 500.064 398.262C504.895 403.324 517.354 418.519 521.263 428.101C527.176 442.605 526.866 445.962 526.344 451.515C526.304 451.956 526.264 452.397 526.214 452.858C525.142 465.387 525.843 468.665 526.234 469.507C526.585 469.136 527.206 468.244 528.038 466.5C528.289 465.968 528.81 465.648 529.381 465.648ZM533.681 478.708C533.601 478.708 533.521 478.708 533.451 478.698C531.206 478.477 529.822 475.47 529.041 469.005C527.768 471.251 526.715 472.042 525.623 471.642C524.179 471.11 522.766 469.156 524.179 452.688C524.219 452.217 524.27 451.766 524.31 451.335C524.811 445.902 525.091 442.915 519.368 428.873C515.67 419.812 503.361 404.487 498.069 399.144L497.528 398.603L497.909 397.931C511.35 373.826 512.172 373.686 512.763 373.585L513.244 373.495L513.645 373.836C520.36 379.77 538.843 406 535.756 447.215C535.716 447.656 535.816 448.077 536.047 448.438C538.272 451.986 543.263 460.887 541.489 466.86C541.349 467.352 537.921 478.708 533.681 478.708Z" fill="black"/>
<path d="M389.658 365.296C389.658 365.296 369.722 371.911 361.523 371.079C349.977 369.907 337.227 334.325 336.335 331.879C335.443 329.433 332.376 316.343 329.389 311.923C326.583 307.783 324.558 303.393 323.435 300.687C322.754 299.043 321.471 298.412 320.358 298.783C319.386 299.103 317.682 300.647 318.664 303.092C319.797 305.919 320.859 308.786 321.802 311.211C322.102 311.973 322.543 312.665 321.902 312.193C320.408 311.101 318.524 310.099 317.281 310.8C314.976 312.113 313.723 320.964 317.462 327.168C321.2 333.382 325.31 331.919 326.553 334.936C327.805 337.943 338.139 377.063 342.389 383.829C348.503 393.551 391.182 394.604 397.596 394.413C404.011 394.223 389.658 365.296 389.658 365.296Z" fill="white"/>
<path d="M318.233 311.592C318.043 311.592 317.893 311.622 317.792 311.683C317.462 311.873 316.95 312.615 316.56 314.078C315.718 317.305 315.918 322.618 318.344 326.647C320.328 329.955 322.333 330.857 324.097 331.659C325.49 332.29 326.823 332.891 327.495 334.545C327.876 335.467 328.938 339.116 330.532 344.639C334.18 357.338 340.314 378.587 343.261 383.278C348.664 391.898 387.593 393.682 397.566 393.391C397.807 393.381 397.897 393.311 397.977 393.17C399.581 390.494 393.878 376.271 389.127 366.539C385.178 367.812 368.87 372.854 361.413 372.092C350.267 370.969 338.701 341.381 335.413 332.35L335.373 332.23C335.132 331.568 334.782 330.295 334.28 328.531C332.937 323.71 330.682 315.652 328.547 312.504C325.761 308.395 323.716 304.025 322.493 301.078C322.072 300.066 321.341 299.534 320.679 299.755C320.398 299.845 319.867 300.206 319.577 300.817C319.326 301.379 319.326 302.01 319.617 302.722C320.328 304.486 321.01 306.28 321.651 307.974C322.042 308.966 322.403 309.928 322.764 310.831C322.814 311.001 322.894 311.161 322.954 311.302C323.185 311.823 323.526 312.595 322.854 313.136C322.553 313.376 322.032 313.557 321.301 313.016C319.847 311.963 318.835 311.592 318.233 311.592ZM397.316 395.436C393.166 395.436 348.243 395.065 341.527 384.37C338.42 379.429 332.486 358.841 328.557 345.21C327.104 340.148 325.951 336.149 325.61 335.327C325.25 334.465 324.588 334.134 323.245 333.523C321.411 332.691 318.905 331.548 316.59 327.699C313.843 323.139 313.603 317.305 314.585 313.557C314.926 312.274 315.577 310.59 316.78 309.908C317.702 309.387 318.865 309.427 320.258 310.029C320.088 309.598 319.917 309.147 319.747 308.696C319.105 307.022 318.424 305.238 317.722 303.474C317.091 301.92 317.381 300.707 317.722 299.955C318.284 298.753 319.326 298.051 320.038 297.811C321.752 297.239 323.536 298.262 324.378 300.286C325.57 303.153 327.545 307.393 330.241 311.352C332.556 314.78 334.782 322.718 336.255 327.98C336.716 329.634 337.077 330.937 337.297 331.528L337.338 331.649C343.592 348.868 353.695 369.255 361.624 370.057C369.512 370.859 389.137 364.394 389.337 364.324L390.169 364.043L390.57 364.845C392.595 368.925 402.548 389.522 399.721 394.223C399.28 394.985 398.529 395.406 397.627 395.436C397.607 395.436 397.496 395.436 397.316 395.436Z" fill="black"/>
<path d="M500.374 404.587C499.462 403.905 497.076 401.891 496.405 401.5C495.353 400.888 494.05 401.65 494.029 402.883C493.929 410.871 494.029 433.915 498.039 441.662C499.733 444.92 501.336 447.446 502.559 450.453C504.704 455.675 504.925 456.988 504.383 458.361C503.832 459.764 499.362 461.047 497.538 461.759C480.839 468.254 447.753 475.17 443.393 456.517C440.907 445.922 439.143 438.435 431.465 424.623C429.451 420.995 425.311 422.117 419.417 416.484C415.999 413.207 415.969 410.09 414.596 405.228C413.634 401.79 412.842 401.189 397.487 397.911C397.136 397.831 381.941 364.234 381.941 364.234C381.941 364.234 422.976 347.295 442.892 344.729C485.48 339.246 504.664 358.41 517.624 377.795C518.135 378.557 501.086 405.118 500.374 404.587Z" fill="#5479F7"/>
<path d="M487.304 435.889C486.953 435.889 486.622 435.708 486.432 435.388C482.092 428.181 476.92 418.108 475.336 404.015C472.831 381.574 460.773 364.865 460.653 364.695C460.312 364.244 460.412 363.602 460.873 363.271C461.324 362.941 461.966 363.041 462.296 363.492C462.427 363.662 474.795 380.782 477.371 403.785C478.905 417.476 483.946 427.309 488.176 434.335C488.467 434.826 488.316 435.448 487.835 435.739C487.665 435.839 487.484 435.889 487.304 435.889Z" fill="white"/>
<path d="M435.094 303.624C435.094 303.624 427.417 301.378 432.849 288.268C438.322 275.078 452.936 280.731 458.649 280.6C464.362 280.48 476.39 272.311 480.599 270.457C484.819 268.603 498.832 259.752 515.871 278.004C515.871 278.004 518.417 282.635 533.672 283.437C546.932 284.139 569.033 294.823 558.88 311.251C555.943 315.982 551.423 319.32 546.271 320.773C545.339 321.044 544.316 321.284 543.234 321.475C540.057 322.056 537.36 324.271 536.138 327.439C532.158 337.732 519.88 357.007 488.197 331.748C485.801 329.844 482.724 329.233 479.858 330.055C476.33 331.057 471.919 336.189 456.253 331.688C446.18 328.792 444.516 317.125 442.532 311.652C440.206 305.227 435.094 303.624 435.094 303.624Z" fill="black"/>
<path d="M437.319 304.345C437.319 304.345 436.517 306.751 436.137 307.793C435.786 308.795 435.054 312.123 431.987 315.421C431.706 315.742 431.696 316.223 431.977 316.563L434.102 319.099C434.252 319.27 434.322 319.5 434.282 319.731C434.102 321.134 433.43 326.286 433.46 327.268C433.501 328.411 434.252 329.523 434.653 329.824C435.726 330.626 440.847 330.686 440.847 330.686C440.847 330.686 442.171 331.007 443.804 338.584C444.957 343.916 436.999 349.459 436.999 349.459C436.999 349.459 454.87 356.676 469.915 350.401C470.847 350.011 470.897 348.677 470.095 348.076C466.898 345.671 460.022 339.817 457.265 332.199C457.105 331.748 456.764 331.378 456.313 331.187C454.499 330.405 449.528 328.992 450.42 320.613C450.44 320.392 450.52 320.192 450.64 320.011C451.693 318.548 456.514 311.331 448.245 312.344C442.782 313.015 441.118 309.016 440.647 307.182C440.487 306.58 440.096 306.069 439.565 305.738L437.319 304.345Z" fill="white"/>
<path d="M433.319 319.751H433.329H433.319ZM439.092 349.118C443.863 350.682 457.705 354.391 469.523 349.459C469.543 349.449 469.613 349.419 469.633 349.279C469.653 349.159 469.603 348.988 469.472 348.888C466.476 346.633 459.189 340.519 456.312 332.55C456.242 332.35 456.102 332.199 455.921 332.129C455.811 332.079 455.691 332.029 455.55 331.979C453.435 331.127 448.484 329.122 449.396 320.502C449.436 320.112 449.587 319.741 449.817 319.41C451.511 317.065 452.333 314.809 451.822 313.947C451.471 313.346 450.208 313.135 448.364 313.366C441.899 314.148 440.065 309.026 439.654 307.442C439.563 307.102 439.343 306.801 439.032 306.61L437.88 305.899C437.619 306.65 437.298 307.583 437.108 308.134C437.058 308.254 437.008 308.415 436.957 308.595C436.506 310.038 435.584 313.005 432.848 316.002L434.883 318.448C435.213 318.829 435.364 319.35 435.304 319.861C434.782 323.76 434.462 326.647 434.482 327.238C434.512 328.05 435.093 328.872 435.264 329.012C435.735 329.323 438.351 329.634 440.856 329.674C440.927 329.674 441.007 329.684 441.077 329.694C442.38 330.004 443.633 332.931 444.806 338.374C445.758 342.784 441.488 347.094 439.092 349.118ZM455.971 354.01C445.698 354.01 437.128 350.622 436.617 350.411C436.266 350.271 436.025 349.95 435.985 349.58C435.935 349.209 436.105 348.838 436.416 348.627C438.471 347.184 443.623 342.623 442.801 338.805C441.698 333.683 440.786 332.119 440.466 331.708C438.661 331.668 435.163 331.488 434.041 330.646C433.419 330.185 432.487 328.812 432.437 327.308C432.407 326.336 432.938 322.156 433.259 319.691L431.194 317.215C430.583 316.483 430.603 315.411 431.244 314.729C433.75 312.023 434.592 309.297 435.003 307.994C435.063 307.773 435.123 307.593 435.173 307.452C435.544 306.41 436.356 304.024 436.356 304.024C436.456 303.724 436.687 303.493 436.978 303.383C437.268 303.283 437.589 303.313 437.86 303.483L440.105 304.876C440.866 305.347 441.418 306.079 441.628 306.931C442.119 308.805 443.603 311.883 448.113 311.331C450.92 310.99 452.764 311.522 453.576 312.905C454.929 315.19 452.834 318.718 451.471 320.613C451.451 320.643 451.431 320.683 451.431 320.723C450.679 327.809 454.348 329.283 456.312 330.085C456.462 330.135 456.603 330.195 456.713 330.245C457.415 330.546 457.966 331.127 458.237 331.859C460.923 339.306 467.849 345.109 470.705 347.254C471.407 347.785 471.768 348.657 471.658 349.539C471.557 350.361 471.056 351.033 470.314 351.344C465.573 353.318 460.602 354.01 455.971 354.01Z" fill="black"/>
<path d="M448.715 321.736C448.494 321.736 448.304 321.716 448.133 321.696C446.911 321.505 445.698 320.673 445.487 319.871C445.347 319.33 445.678 318.769 446.219 318.629C446.7 318.498 447.201 318.749 447.402 319.19C447.562 319.34 448.133 319.731 448.795 319.701C449.396 319.661 449.938 319.27 450.409 318.518C450.709 318.047 451.341 317.897 451.822 318.198C452.303 318.498 452.443 319.13 452.143 319.611C451.04 321.365 449.677 321.736 448.715 321.736Z" fill="black"/>
<path d="M432.298 315.882C432.247 315.882 432.197 315.882 432.147 315.872C430.644 315.652 429.491 314.92 428.8 313.737C427.045 310.7 428.94 305.729 429.16 305.178C429.351 304.686 429.892 304.426 430.403 304.576L448.284 309.979C448.826 310.139 449.126 310.71 448.966 311.252C448.806 311.793 448.234 312.103 447.693 311.933L430.754 306.821C430.253 308.445 429.702 311.191 430.574 312.715C430.944 313.356 431.556 313.717 432.438 313.858C432.999 313.928 433.39 314.449 433.31 315.01C433.23 315.521 432.789 315.882 432.298 315.882Z" fill="black"/>
<path d="M445.898 323.469C446.068 322.728 446.8 322.257 447.532 322.417C448.274 322.587 448.735 323.329 448.574 324.071C448.404 324.823 447.682 325.294 446.94 325.123C446.209 324.963 445.738 324.221 445.898 323.469Z" fill="#5479F7"/>
<path d="M197.034 93.509L173.129 96.8066C170.182 97.2176 167.737 99.3024 166.885 102.149L162.505 116.632L152.802 103.592C151.138 101.367 148.402 100.225 145.656 100.595L123.665 103.632C119.505 104.214 115.656 101.297 115.085 97.1274L108.65 50.3996C108.079 46.23 110.986 42.3911 115.155 41.8098L188.525 31.6864C192.694 31.1151 196.533 34.0218 197.104 38.2014L203.539 84.9192C204.11 89.0888 201.204 92.9377 197.034 93.509Z" fill="#5479F7"/>
<path d="M166.744 56.8347C164.88 55.2611 162.494 54.5795 160.049 54.8903C158.225 55.1208 156.621 55.9226 155.298 57.2457C154.626 57.9172 154.045 58.7091 153.554 59.6111C152.852 58.8594 152.09 58.248 151.269 57.7669C149.655 56.8147 147.901 56.4539 146.077 56.6844C143.631 57.0051 141.506 58.268 140.093 60.2626C138.7 62.2272 138.118 64.743 138.449 67.349C138.79 70.0352 140.103 72.3606 142.578 74.6759C144.794 76.7407 147.851 78.7353 151.389 81.0506C152.602 81.8424 153.975 82.7345 155.398 83.6967C155.769 83.9473 156.23 84.0575 156.681 83.9974C157.132 83.9373 157.543 83.7167 157.844 83.376C158.986 82.093 160.089 80.8802 161.051 79.8077C163.898 76.6705 166.353 73.9743 167.967 71.4084C169.781 68.5518 170.463 65.9658 170.122 63.2796C169.791 60.6736 168.588 58.3883 166.744 56.8347Z" fill="white"/>
<path d="M443.613 167.971C436.647 187.165 450.679 210.239 475.396 221.936C475.416 221.946 475.426 221.956 475.436 221.956C477.491 223.138 477.06 240.789 477.06 240.789C477.06 240.789 487.214 226.426 489.86 227.087C515.85 233.482 540.697 224.832 547.553 205.929C555.11 185.101 537.961 159.722 509.264 149.238C480.558 138.754 451.17 147.143 443.613 167.971Z" fill="#5479F7"/>
<path d="M491.133 143.504C482.974 143.504 475.216 145.038 468.621 148.115C460.071 152.104 454.068 158.298 451.261 166.046C444.576 184.489 458.017 207.141 482.523 218.738L482.624 218.798C484.498 219.87 484.889 227.778 484.829 235.316C485.801 234.013 487.054 232.389 488.367 230.775C493.769 224.18 495.603 223.529 496.796 223.819C509.255 226.886 521.844 226.516 532.228 222.767C542.612 219.008 550.089 212.102 553.287 203.312C560.633 183.045 543.724 158.198 515.6 147.934C507.511 144.967 499.132 143.504 491.133 143.504ZM482.644 241.851L482.724 238.493C482.914 230.775 482.523 221.795 481.571 220.552C456.162 208.514 442.29 184.779 449.347 165.344C452.344 157.085 458.708 150.49 467.749 146.26C481.3 139.946 499.442 139.856 516.301 146.01C545.489 156.664 562.939 182.684 555.201 204.004C551.803 213.375 543.895 220.722 532.92 224.691C522.165 228.57 509.155 228.971 496.305 225.804C494.882 225.904 489.078 232.76 484.588 239.105L482.644 241.851Z" fill="black"/>
<path d="M474.183 194.803L472.75 194.462C471.106 194.061 470.093 192.397 470.494 190.743C470.895 189.09 472.559 188.077 474.213 188.478L475.636 188.829C477.29 189.23 478.302 190.894 477.891 192.548C477.491 194.201 475.827 195.214 474.183 194.803Z" fill="white"/>
<path d="M490.502 198.792L485.41 197.549C484.768 197.399 484.378 196.757 484.538 196.116L486.733 187.115C486.883 186.483 487.525 186.092 488.166 186.253L493.258 187.496C493.9 187.646 494.29 188.287 494.13 188.919L491.935 197.93C491.785 198.561 491.143 198.952 490.502 198.792Z" fill="white"/>
<path d="M504.996 202.33L499.904 201.087C499.262 200.927 498.881 200.285 499.032 199.654L505.076 174.877C505.236 174.235 505.868 173.844 506.509 174.005L511.601 175.248C512.242 175.408 512.633 176.039 512.473 176.681L506.429 201.458C506.278 202.1 505.637 202.49 504.996 202.33Z" fill="white"/>
<path d="M519.489 205.868L514.387 204.625C513.755 204.465 513.364 203.824 513.525 203.192L521.684 169.735C521.834 169.103 522.475 168.713 523.107 168.873L528.209 170.116C528.85 170.266 529.231 170.908 529.081 171.549L520.922 204.996C520.761 205.638 520.12 206.029 519.489 205.868Z" fill="white"/>
<path d="M528.76 243.435C528.189 243.435 527.738 242.974 527.738 242.412V237.12C527.738 236.559 528.189 236.108 528.76 236.108C529.321 236.108 529.783 236.559 529.783 237.12V242.412C529.783 242.974 529.321 243.435 528.76 243.435Z" fill="black"/>
<path d="M528.76 255.753C528.189 255.753 527.738 255.292 527.738 254.731V249.439C527.738 248.877 528.189 248.426 528.76 248.426C529.321 248.426 529.783 248.877 529.783 249.439V254.731C529.783 255.292 529.321 255.753 528.76 255.753Z" fill="black"/>
<path d="M525.242 246.953H519.949C519.388 246.953 518.937 246.492 518.937 245.931C518.937 245.369 519.388 244.908 519.949 244.908H525.242C525.803 244.908 526.264 245.369 526.264 245.931C526.264 246.492 525.803 246.953 525.242 246.953Z" fill="black"/>
<path d="M537.559 246.953H532.267C531.706 246.953 531.245 246.492 531.245 245.931C531.245 245.359 531.706 244.908 532.267 244.908H537.559C538.12 244.908 538.582 245.359 538.582 245.931C538.582 246.492 538.12 246.953 537.559 246.953Z" fill="black"/>
<path d="M519.959 71.6289C519.388 71.6289 518.937 71.1679 518.937 70.6066V65.3144C518.937 64.7531 519.388 64.292 519.959 64.292C520.521 64.292 520.982 64.7531 520.982 65.3144V70.6066C520.982 71.1679 520.521 71.6289 519.959 71.6289Z" fill="black"/>
<path d="M519.959 83.9473C519.388 83.9473 518.937 83.4862 518.937 82.9249V77.6427C518.937 77.0714 519.388 76.6104 519.959 76.6104C520.521 76.6104 520.982 77.0714 520.982 77.6427V82.9249C520.982 83.4862 520.521 83.9473 519.959 83.9473Z" fill="black"/>
<path d="M516.442 75.1468H511.149C510.588 75.1468 510.127 74.6857 510.127 74.1244C510.127 73.5531 510.588 73.1021 511.149 73.1021H516.442C517.003 73.1021 517.464 73.5531 517.464 74.1244C517.464 74.6857 517.003 75.1468 516.442 75.1468Z" fill="black"/>
<path d="M528.76 75.1465H523.468C522.907 75.1465 522.446 74.6855 522.446 74.1242C522.446 73.5529 522.907 73.0918 523.468 73.0918H528.76C529.322 73.0918 529.783 73.5529 529.783 74.1242C529.783 74.6855 529.322 75.1465 528.76 75.1465Z" fill="black"/>
<path d="M30.8503 428.512C29.9983 428.512 29.1564 428.692 28.3546 429.043C25.2173 430.456 23.794 434.215 25.1772 437.432C25.8488 438.996 27.0816 440.199 28.6452 440.8C30.1788 441.402 31.8426 441.351 33.3461 440.68C36.4833 439.277 37.9066 435.508 36.5234 432.301C35.8518 430.737 34.619 429.534 33.0554 428.923C32.3337 428.652 31.592 428.512 30.8503 428.512ZM30.8503 443.266C29.858 443.266 28.8657 443.085 27.9035 442.715C25.8287 441.903 24.195 440.319 23.3029 438.244C21.4787 434.004 23.3731 429.043 27.5226 427.179C29.5273 426.287 31.7524 426.227 33.7971 427.018C35.8719 427.83 37.5057 429.414 38.3977 431.489C40.2319 435.718 38.3376 440.68 34.178 442.544C33.1155 443.025 31.9829 443.266 30.8503 443.266Z" fill="white"/>
<path d="M58.2536 141.099C57.7525 141.099 57.2613 141.209 56.7903 141.42C54.946 142.252 54.1141 144.457 54.926 146.351C55.3269 147.273 56.0485 147.975 56.9606 148.336C57.8627 148.686 58.835 148.656 59.717 148.265C61.5613 147.433 62.3932 145.218 61.5813 143.324C61.1804 142.402 60.4587 141.7 59.5466 141.349C59.1256 141.179 58.6846 141.099 58.2536 141.099ZM58.2536 150.621C57.5721 150.621 56.8805 150.501 56.2189 150.24C54.7957 149.679 53.663 148.586 53.0516 147.163C51.7887 144.256 53.1017 140.838 55.9583 139.555C57.3415 138.934 58.8751 138.894 60.2883 139.445C61.7216 139.996 62.8442 141.089 63.4556 142.522C64.7185 145.429 63.4155 148.847 60.5489 150.13C59.8172 150.46 59.0354 150.621 58.2536 150.621Z" fill="black"/>
<path d="M41.8167 92.9177C41.6463 92.9177 41.4759 92.8777 41.3155 92.7874C40.8244 92.5068 40.654 91.8854 40.9246 91.3942C57.2523 62.6579 82.3201 40.2863 115.427 24.9109C115.928 24.6703 116.539 24.8908 116.78 25.402C117.02 25.9132 116.8 26.5246 116.288 26.7652C83.573 41.9602 58.8159 64.0411 42.7088 92.4066C42.5183 92.7373 42.1675 92.9177 41.8167 92.9177Z" fill="black"/>
<path d="M25.2179 141.099C25.1978 141.099 25.1678 141.099 25.1377 141.099C24.5764 141.059 24.1554 140.568 24.1955 140.007C24.2156 139.866 25.3782 125.443 33.5671 106.259C33.7876 105.738 34.389 105.497 34.9102 105.717C35.4214 105.938 35.662 106.539 35.4415 107.061C27.3929 125.914 26.2503 140.017 26.2402 140.157C26.2001 140.698 25.7491 141.099 25.2179 141.099Z" fill="black"/>
<path d="M27.5933 90.2813C27.4529 90.2813 27.3026 90.2513 27.1623 90.1811C26.6511 89.9406 26.4306 89.3291 26.6711 88.818C26.7413 88.6776 33.537 74.2744 48.4814 57.4957C62.2733 42.02 86.0381 21.2621 120.959 10.2668C121.5 10.1064 122.071 10.4071 122.242 10.9383C122.412 11.4796 122.111 12.0509 121.57 12.2213C87.1005 23.0663 63.6264 43.5636 50.005 58.8488C35.2609 75.417 28.5956 89.5396 28.5254 89.69C28.355 90.0608 27.9842 90.2813 27.5933 90.2813Z" fill="black"/>
<path d="M221.912 526.257C221.912 526.257 236.516 521.697 260.411 475.3C280.587 436.139 262.606 398.292 258.968 372.974C258.597 370.388 255.069 370.017 254.197 372.472C248.143 389.482 238.41 420.413 239.984 439.457C242.259 466.9 221.912 526.257 221.912 526.257Z" fill="#99B9FF"/>
<path d="M237.739 500.889L242.931 459.784C245.186 441.933 242.269 423.811 234.532 407.613C223.246 383.999 222.363 356.686 232.086 332.38L240.435 311.512C241.488 308.876 238.13 306.741 236.225 308.836L224.508 321.735C197.907 351.003 188.926 392.438 200.984 430.246L222.594 497.982L237.739 500.889Z" fill="#99B9FF"/>
<path d="M240.243 482.105C240.203 482.105 240.153 482.105 240.113 482.095C239.552 482.025 239.151 481.514 239.221 480.953L241.917 459.653C243.28 448.849 242.749 437.994 240.333 427.389C240.213 426.838 240.554 426.287 241.105 426.166C241.646 426.046 242.198 426.377 242.328 426.928C244.794 437.773 245.345 448.869 243.942 459.914L241.256 481.213C241.185 481.724 240.744 482.105 240.243 482.105Z" fill="#CADDFF"/>
<path d="M231.034 502.242L213.002 456.176C207.88 443.066 197.075 433.053 183.715 429.003L171.416 425.285C168.429 424.383 166.425 428.322 168.9 430.246L176.458 436.12C184.637 442.494 189.528 452.267 189.748 462.701C189.869 468.825 191.613 474.819 194.8 480.041L207.018 500.087L231.034 502.242Z" fill="#99B9FF"/>
<path d="M228.366 481.614C228.336 481.614 228.296 481.614 228.266 481.614C227.704 481.554 227.293 481.063 227.344 480.501C230.09 451.154 224.196 432.25 218.994 415.572C216.579 407.834 214.303 400.527 212.94 392.659C206.546 355.503 228.366 323.249 228.586 322.928C228.907 322.467 229.549 322.347 230.01 322.667C230.471 322.988 230.591 323.63 230.27 324.091C230.06 324.411 208.701 355.994 214.965 392.318C216.288 400.046 218.553 407.293 220.949 414.96C226.201 431.819 232.165 450.933 229.378 480.692C229.328 481.223 228.887 481.614 228.366 481.614Z" fill="#CADDFF"/>
<path d="M220.709 468.053C220.288 468.053 219.887 467.783 219.747 467.352C217.432 460.345 212.19 453.049 208.2 448.167C207.84 447.726 207.91 447.085 208.351 446.724C208.782 446.373 209.423 446.433 209.784 446.874C213.884 451.896 219.276 459.413 221.682 466.71C221.862 467.251 221.571 467.823 221.03 468.003C220.93 468.033 220.82 468.053 220.709 468.053Z" fill="#CADDFF"/>
<path d="M252.383 461.949C252.323 461.949 252.273 461.939 252.213 461.929C251.661 461.839 251.28 461.308 251.371 460.756C256.282 431.739 254.578 387.046 254.558 386.605C254.538 386.034 254.979 385.563 255.54 385.533C256.132 385.523 256.583 385.954 256.603 386.525C256.623 386.966 258.337 431.87 253.395 461.097C253.305 461.598 252.874 461.949 252.383 461.949Z" fill="#CADDFF"/>
<path d="M209.333 486.015C208.772 486.015 208.311 485.564 208.301 485.002C207.96 449.07 179.244 433.243 178.953 433.093C178.462 432.822 178.271 432.201 178.542 431.7C178.803 431.208 179.424 431.018 179.925 431.289C180.226 431.449 209.995 447.807 210.355 484.982C210.355 485.554 209.904 486.015 209.333 486.015Z" fill="#CADDFF"/>
<path d="M213.242 418.298C212.941 418.298 212.641 418.168 212.44 417.908C204.562 407.794 201.184 394.554 201.044 393.992C200.904 393.441 201.234 392.89 201.786 392.75C202.327 392.619 202.888 392.95 203.029 393.491C203.059 393.632 206.446 406.882 214.054 416.645C214.395 417.096 214.315 417.737 213.874 418.088C213.683 418.228 213.463 418.298 213.242 418.298Z" fill="#CADDFF"/>
<path d="M250.357 555.765H203.168C197.334 555.765 192.604 551.034 192.604 545.201V491.106H260.921V545.201C260.921 551.034 256.19 555.765 250.357 555.765Z" fill="#5479F7"/>
<path d="M254.226 503.545H199.3C198.738 503.545 198.277 503.084 198.277 502.513C198.277 501.952 198.738 501.5 199.3 501.5H254.226C254.788 501.5 255.249 501.952 255.249 502.513C255.249 503.084 254.788 503.545 254.226 503.545Z" fill="white"/>
</svg>
