<svg width="48" height="48" viewBox="0 0 48 48" fill="none" xmlns="http://www.w3.org/2000/svg">
<path d="M36 4H26C26 5.1 25.1 6 24 6C22.9 6 22 5.1 22 4H12C9.8 4 8 5.8 8 8V40C8 42.2 9.8 44 12 44H36C38.2 44 40 42.2 40 40V8C40 5.8 38.2 4 36 4Z" fill="#455A64"/>
<path d="M36 41H12C11.4 41 11 40.6 11 40V8C11 7.4 11.4 7 12 7H36C36.6 7 37 7.4 37 8V40C37 40.6 36.6 41 36 41Z" fill="white"/>
<path d="M26 4C26 5.1 25.1 6 24 6C22.9 6 22 5.1 22 4H15V8C15 9.1 15.9 10 17 10H31C32.1 10 33 9.1 33 8V4H26Z" fill="#90A4AE"/>
<path d="M24 0C21.8 0 20 1.8 20 4C20 6.2 21.8 8 24 8C26.2 8 28 6.2 28 4C28 1.8 26.2 0 24 0ZM24 6C22.9 6 22 5.1 22 4C22 2.9 22.9 2 24 2C25.1 2 26 2.9 26 4C26 5.1 25.1 6 24 6Z" fill="#90A4AE"/>
<path d="M21 20H33V22H21V20ZM15 19H19V23H15V19Z" fill="#CFD8DC"/>
<path d="M21 29H33V31H21V29ZM15 28H19V32H15V28Z" fill="#03A9F4"/>
</svg>
