<?xml version="1.0" encoding="UTF-8" standalone="no"?>
<svg
   xmlns:dc="http://purl.org/dc/elements/1.1/"
   xmlns:cc="http://creativecommons.org/ns#"
   xmlns:rdf="http://www.w3.org/1999/02/22-rdf-syntax-ns#"
   xmlns:svg="http://www.w3.org/2000/svg"
   xmlns="http://www.w3.org/2000/svg"
   xmlns:sodipodi="http://sodipodi.sourceforge.net/DTD/sodipodi-0.dtd"
   xmlns:inkscape="http://www.inkscape.org/namespaces/inkscape"
   version="1.1"
   id="svg2"
   xml:space="preserve"
   width="1466.6667"
   height="1066.6667"
   viewBox="0 0 1466.6667 1066.6667"
   sodipodi:docname="26822.eps"><metadata
     id="metadata8"><rdf:RDF><cc:Work
         rdf:about=""><dc:format>image/svg+xml</dc:format><dc:type
           rdf:resource="http://purl.org/dc/dcmitype/StillImage" /></cc:Work></rdf:RDF></metadata><defs
     id="defs6" /><sodipodi:namedview
     pagecolor="#ffffff"
     bordercolor="#666666"
     borderopacity="1"
     objecttolerance="10"
     gridtolerance="10"
     guidetolerance="10"
     inkscape:pageopacity="0"
     inkscape:pageshadow="2"
     inkscape:window-width="640"
     inkscape:window-height="480"
     id="namedview4" /><g
     id="g10"
     inkscape:groupmode="layer"
     inkscape:label="ink_ext_XXXXXX"
     transform="matrix(1.3333333,0,0,-1.3333333,0,1066.6667)"><g
       id="g12"
       transform="scale(0.1)"><path
         d="M 0,0 H 11000 V 8000 H 0 Z"
         style="fill:#ffffff;fill-opacity:1;fill-rule:nonzero;stroke:none"
         id="path14" /><path
         d="m 5767.36,940.582 c 354.92,-1.172 709.83,-0.723 1064.74,2.609 760.31,7.118 1520.68,26.899 2279.74,72.289 328.65,19.66 1497.56,2.13 944.16,707.03 -187.04,238 -586.18,331.39 -848.29,335.79 -287.24,4.82 -566.28,-21.24 -853.94,-36.57 -267.3,-14.25 -533.93,-34.52 -801.66,-33.8 -546.83,1.45 -1093.72,0 -1639.57,-44.67 -512.82,-41.96 -1026.94,-27.56 -1540.9,-27.56 -527.04,0 -1050.51,5.07 -1573.74,90.72 -227.98,37.31 -460.24,50.38 -689.36,76.53 -205.21,23.41 -402.39,-0.47 -606.78,-22.11 -171.62,-18.16 -342.12,-72.07 -498.03,-163.18 C 880.313,1825.54 660.293,1601.48 622.445,1429.34 516.344,946.719 2117.77,958.309 2363.68,959.398 3498.27,964.41 4632.8,944.289 5767.36,940.582"
         style="fill:#fafafa;fill-opacity:1;fill-rule:nonzero;stroke:none"
         id="path16" /><path
         d="m 8303.27,2856.6 c 67.65,-59.58 83.34,-173.87 87.87,-260.81 6.7,-128.63 -36.95,-240.08 -71.86,-360.93 -2.57,-8.88 -5.88,-18.71 -14.08,-22.98 -9.63,-5.01 -22.17,0.55 -28.06,9.68 -5.89,9.12 -6.58,20.62 -5.97,31.47 2,35.51 15.83,69.11 25.83,103.25 33.13,113.11 20.31,238.01 -44.35,336.54 -25.38,38.68 -69.2,79.02 -41.6,166.65 18.01,57.19 49.18,35.02 92.22,-2.87"
         style="fill:#313d57;fill-opacity:1;fill-rule:nonzero;stroke:none"
         id="path18" /><path
         d="m 8072.8,2519.82 c -94.29,19.86 -194.26,11.58 -291.5,2.19 -106.09,-10.23 -216.9,-23.08 -304.41,-73.27 -44.88,-25.74 -87.75,-67.76 -104.19,-121.83 -7.1,-23.31 -8.47,-48.62 -1.37,-72.23 3.21,-10.68 7.28,-23.07 11.29,-33.04 5.99,-14.93 16.31,-16.47 29.94,-20.7 17.08,-5.31 31.68,-17.28 46.78,-27.57 70.43,-48.05 150.19,-48.24 229.73,-58.39 80.02,-10.2 160.16,-18.01 240.7,-19.67 131.23,-2.72 362.75,8.88 403.54,142.91 38.15,125.33 -135.65,255.31 -260.51,281.6"
         style="fill:#313d57;fill-opacity:1;fill-rule:nonzero;stroke:none"
         id="path20" /><path
         d="m 7541.12,2274.7 c -13.19,-11.94 -30.44,-17.63 -47.29,-22.48 -54.04,-15.59 -93.95,-46.84 -150.06,-46.48 -189.93,1.21 -194.84,261 -26.93,326.88 127.99,50.21 366.18,-129.55 224.28,-257.92"
         style="fill:#313d57;fill-opacity:1;fill-rule:nonzero;stroke:none"
         id="path22" /><path
         d="m 8130.45,2297.56 c 29.21,25.52 63.44,46.02 96.59,63.02 7.31,3.74 14.88,7.43 23.06,8.18 8.36,0.77 16.72,-1.6 24.42,-4.95 46.53,-20.22 71.02,-80.31 51.86,-127.3 -6.16,-15.09 -15.96,-28.4 -26.24,-41.05 -29.09,-35.78 -63.03,-67.91 -87.35,-107.09 -44.63,-71.91 -20.74,-129.56 -0.92,-204.16 1.88,-7.08 3.77,-14.26 3.85,-21.59 0.35,-35.23 -9.45,-68.55 -51.25,-72.29 -11.55,-1.03 -24.68,5.59 -26.74,17 -3.54,19.81 19.65,23.5 24.34,38.45 4.83,15.4 -10.51,30.89 -17.69,43.03 -19.04,32.16 -36.94,65.22 -52.21,99.34 -28.43,63.53 -51.82,139.99 -30.51,209.26 12.38,40.25 37.74,73.02 68.79,100.15"
         style="fill:#313d57;fill-opacity:1;fill-rule:nonzero;stroke:none"
         id="path24" /><path
         d="m 7867.65,1937.06 c -4.39,-9.5 -8.78,-19.86 -6.65,-30.12 1.81,-8.69 8.02,-15.71 14,-22.27 13.08,-14.39 26.15,-28.76 39.23,-43.15 12.14,-13.34 25.44,-27.38 43.06,-31.25 17.62,-3.86 39.67,8.36 38.52,26.36 -1.45,22.93 -32.94,28.54 -48.57,45.37 -18.95,20.41 -10.99,53.67 2.82,77.87 24.63,43.17 64.57,77.4 110.99,95.12 15.28,5.83 31.51,10.09 44.75,19.67 13.25,9.58 23.02,26.48 18.31,42.16 -20.13,66.9 -115.63,71.08 -150.92,25.04 -43.56,-56.87 -75.58,-139.78 -105.54,-204.8"
         style="fill:#313d57;fill-opacity:1;fill-rule:nonzero;stroke:none"
         id="path26" /><path
         d="m 7619.27,1886.27 c 4.58,-9.22 9.77,-18.96 18.43,-23.41 7.34,-3.77 15.84,-3.03 23.89,-2.19 17.62,1.82 35.25,3.64 52.86,5.45 16.35,1.69 33.85,3.89 46.24,15.66 12.4,11.76 15.43,36.73 1.63,46.62 -17.56,12.61 -38.76,-9.19 -59.56,-11.57 -65.61,-7.53 -80.38,104.68 -52,147.93 5.9,8.98 13.11,16.79 19.7,25.16 14.04,17.84 26.05,38.84 33.37,61.11 9.15,27.86 6.44,19.28 -10.34,29.41 -34.77,20.97 -73.89,34.85 -112.82,19.13 -36.66,-14.8 -65.17,-62.68 -53.91,-105.92 17.94,-68.97 61.21,-144.38 92.51,-207.38"
         style="fill:#313d57;fill-opacity:1;fill-rule:nonzero;stroke:none"
         id="path28" /><path
         d="m 7577.11,2053.39 c 2.36,-24.9 4.74,-49.9 3.8,-74.89 -1.04,-27.99 -6.21,-56.11 -2.23,-83.81 4.06,-28.31 17.43,-54.16 22.71,-82.24 1.86,-9.94 2.58,-20.8 -1.8,-29.69 -4.38,-8.89 -15.49,-14.29 -23.28,-8.81 -27.43,44.27 -55.63,90.62 -62.45,143.53 -5.66,43.81 3.66,90.31 -11.42,131.41 -9.74,26.59 -28.46,47.59 -39.57,73.36 -10.13,23.46 -22.75,52.07 -15.27,78.21 4.18,14.6 16.24,20.72 18.86,35.18 0.42,2.37 1.2,5.15 3.32,5.76 1.26,0.37 2.6,-0.24 3.81,-0.82 24.36,-11.8 78.5,-24.91 90.47,-51.58 7.15,-15.92 4.42,-44.72 6.11,-62.51 2.31,-24.36 4.62,-48.74 6.94,-73.1"
         style="fill:#313d57;fill-opacity:1;fill-rule:nonzero;stroke:none"
         id="path30" /><path
         d="m 7563.08,2467.15 c 0,0 -20.97,-194.02 -133.19,-258.77 l -34.79,0.39 c 0,0 122.26,117.91 143.38,276.88 l 24.6,-18.5"
         style="fill:#ffffff;fill-opacity:1;fill-rule:nonzero;stroke:none"
         id="path32" /><path
         d="m 7401.86,2208.38 c 20.17,-6.73 14.13,-8.08 22.95,-26.11 5.38,-10.98 7.29,-24.9 0.35,-34.96 -5.57,-8.09 -15.76,-11.95 -25.57,-12.46 -21.88,-1.12 -44.38,15.11 -46.97,36.87 -2.6,21.76 18.89,43.92 40.28,39.19 l 8.96,-2.53"
         style="fill:#8ec3eb;fill-opacity:1;fill-rule:nonzero;stroke:none"
         id="path34" /><path
         d="m 7232.09,2597.57 c -2,0.98 -3.96,-1.01 -3.25,-3.12 4.99,-14.74 4.73,-30.99 4.37,-46.7 -0.86,-37.71 -1.72,-75.43 -2.58,-113.14 0.58,25.48 164.21,-56.05 147.28,33.47 -9.83,52.04 -99.28,106.52 -145.82,129.49"
         style="fill:#313d57;fill-opacity:1;fill-rule:nonzero;stroke:none"
         id="path36" /><path
         d="m 7310.34,2615.21 c -2,0.99 -3.96,-0.99 -3.25,-3.11 5,-14.75 4.74,-31 4.38,-46.7 -0.86,-37.71 -1.72,-75.43 -2.59,-113.13 0.58,25.46 164.22,-56.05 147.29,33.45 -9.84,52.04 -99.29,106.54 -145.83,129.49"
         style="fill:#313d57;fill-opacity:1;fill-rule:nonzero;stroke:none"
         id="path38" /><path
         d="m 3449.89,4232.97 32.59,73.48 -26.53,65.73 11.07,12.7 16.18,-13 -6.4,60.86 27.5,41.36 66.06,2.22 55.24,-40.14 -4.75,-65.82 -44.06,-64.95 -40.26,-102.51 -86.64,30.07"
         style="fill:#f5cabd;fill-opacity:1;fill-rule:nonzero;stroke:none"
         id="path40" /><path
         d="M 3462.4,4297.15 3216.38,3869.66 2760,3790 l 54.39,-266.21 512.56,-51.73 290.85,804.41 -155.4,20.68"
         style="fill:#8ec3eb;fill-opacity:1;fill-rule:nonzero;stroke:none"
         id="path42" /><path
         d="m 3237.41,1555.93 135.39,-90.27 v -62.05 l -118.47,-22.57 -186.17,90.27 16.93,84.62 h 152.32"
         style="fill:#264fa2;fill-opacity:1;fill-rule:nonzero;stroke:none"
         id="path44" /><path
         d="m 2750.46,3808.08 c -45.19,-5.47 -90.38,-10.95 -135.57,-16.43 -8.33,35.33 -13.83,121.34 -16.43,157.55 -39.74,4.74 -86.66,14.67 -101.68,51.77 -4.73,11.69 -5.4,24.55 -6,37.15 -2.52,52.05 -5.04,104.1 -7.56,156.16 -0.87,18 -1.66,36.55 4.46,53.51 10.73,29.75 40.29,48.31 69.53,60.37 74.61,30.79 162.93,32.84 234.45,-4.58 19.03,-9.95 37.14,-22.99 48.6,-41.15 17.68,-28.01 17.03,-63.4 15.78,-96.5 -1.13,-30.55 -2.28,-61.1 -3.42,-91.64 -1.31,-35.14 -5.48,-75.68 -34.69,-95.26 -15.5,-10.4 -35.98,-12.94 -49.18,-26.14 -23.26,-23.29 -10.62,-112.79 -18.29,-144.81"
         style="fill:#f5cabd;fill-opacity:1;fill-rule:nonzero;stroke:none"
         id="path46" /><path
         d="m 3086.94,4457.84 c 4.83,14.22 10.35,28.13 17.02,41.5 14.43,28.98 34.26,55.48 44.2,86.28 9.94,30.81 7.34,68.99 -17.47,89.78 -16.01,13.42 -37.94,17.02 -58.78,18.42 -68.68,4.59 -138.53,-9.64 -199.94,-40.73 -58.49,-29.62 -108.17,-68.14 -175.79,-58.74 -63.54,8.82 -103.92,-9.56 -160.35,-45.1 -61.05,-38.46 -148.87,-63.91 -201.46,-110.72 -21.96,-19.55 -37.11,-45.82 -47.33,-73.38 -35.43,-95.51 -10.06,-210.65 62.21,-282.43 16.22,-16.1 34.44,-30.07 53.22,-43.1 38.86,-26.95 85.65,-60.53 131.5,-63.51 -7.56,38.75 -69.73,152.37 -47.19,190.53 35.77,60.56 145.8,66.76 206.78,67.41 66.52,0.71 133.16,-31.64 198.28,-27.21 46.86,3.19 99.73,38.31 133.04,70.33 41.1,39.52 44.43,128.78 62.06,180.67"
         style="fill:#313d57;fill-opacity:1;fill-rule:nonzero;stroke:none"
         id="path48" /><path
         d="m 1973.73,1596.29 53.81,-94.17 -6.72,-60.54 -80.72,-13.46 -121.07,74 40.35,255.59 114.35,33.64 v -195.06"
         style="fill:#264fa2;fill-opacity:1;fill-rule:nonzero;stroke:none"
         id="path50" /><path
         d="m 2027.54,2450.53 c 0,0 -127.8,-235.42 47.09,-383.4 174.88,-147.98 477.56,-383.4 477.56,-383.4 l -571.73,127.79 -40.36,-201.78 c 0,0 867.69,-289.23 887.87,-269.06 20.18,20.19 235.42,208.52 235.42,208.52 l -464.11,1015.67 -511.2,-60.53 -60.54,-53.81"
         style="fill:#313d57;fill-opacity:1;fill-rule:nonzero;stroke:none"
         id="path52" /><path
         d="m 3386.05,2598.48 -0.01,0.07 c -41.95,44.9 -80.89,92.33 -114.75,142.98 -74.08,110.84 -117.66,234.16 -131,363.51 -6.73,65.29 -6.63,130.89 -3.61,196.11 1.65,35.33 4.23,70.6 7.22,105.81 1.7,20 21.03,92.21 10.28,107.92 -109,159.37 -122.17,277 -300.57,296.25 -407.08,43.94 -384,19.18 -522.4,-149.06 -55.65,-67.65 -158.45,-261.76 -193.98,-340.98 -43.03,-95.93 -84.91,-192.4 -123.55,-290.13 -43.12,-109.07 -82.29,-219.73 -114.44,-332.46 -3.57,-12.52 -14.98,-47.24 -27.19,-89.2 -23.06,-79.33 -48.93,-184.52 -30.11,-214.94 9.78,-25.37 35.63,-52.4 98.16,-64.91 134.53,-26.9 242.15,-26.9 390.12,47.08 147.98,74 393.12,21.48 393.12,21.48 l 0.01,0.01 c 38.96,-10.68 79.7,-21.21 123.08,-30.88 315.4,-70.35 478.4,122.81 529.55,157.88 44.72,30.67 10.07,73.46 10.07,73.46"
         style="fill:#8ec3eb;fill-opacity:1;fill-rule:nonzero;stroke:none"
         id="path54" /><path
         d="m 2686.72,2416.89 726.44,336.32 188.33,-242.15 -322.86,-988.77 -215.24,26.91 60.54,591.91 c 0,0 -181.61,-154.69 -504.47,-141.25 -147.98,147.98 -147.98,141.25 -147.98,141.25 l 215.24,275.78"
         style="fill:#313d57;fill-opacity:1;fill-rule:nonzero;stroke:none"
         id="path56" /><path
         d="M 6782.07,6458.16 2980.33,5200.31 5273.32,4644.11 6782.07,6458.16"
         style="fill:#264fa2;fill-opacity:1;fill-rule:nonzero;stroke:none"
         id="path58" /><path
         d="M 2881.07,5080.96 3691.09,2632.71 7254.9,3811.84 c 269.55,89.18 410.79,395.03 315.47,683.13 L 6932.94,6421.56 5324.92,4488.15 2881.07,5080.96"
         style="fill:#264fa2;fill-opacity:1;fill-rule:nonzero;stroke:none"
         id="path60" /><path
         d="m 6288.13,5864.27 v 0 l 493.94,593.89 -493.94,-593.89 m -188.2,368.2 v 0 l 682.14,225.69 -682.14,-225.69"
         style="fill:#d6d4d2;fill-opacity:1;fill-rule:nonzero;stroke:none"
         id="path62" /><path
         d="m 6288.13,5864.27 c -71.88,72.89 -128.57,162.97 -162.9,266.74 -11.14,33.65 -19.53,67.55 -25.3,101.46 l 682.14,225.69 -493.94,-593.89"
         style="fill:#244687;fill-opacity:1;fill-rule:nonzero;stroke:none"
         id="path64" /><path
         d="m 7149.39,5767.36 -216.45,654.2 216.46,-654.2 c -0.01,0 -0.01,0 -0.01,0"
         style="fill:#d6d4d2;fill-opacity:1;fill-rule:nonzero;stroke:none"
         id="path66" /><path
         d="m 6778.45,5658.85 c -137.67,0.01 -270.87,41.66 -382.88,116.59 l 537.37,646.12 216.45,-654.2 c -47.28,-30.19 -99.02,-55.07 -154.71,-73.5 -71.75,-23.73 -144.58,-35.01 -216.23,-35.01"
         style="fill:#244687;fill-opacity:1;fill-rule:nonzero;stroke:none"
         id="path68" /><path
         d="m 6259.76,6265.54 c -119.38,360.8 76.33,750.07 437.14,869.44 360.81,119.38 750.07,-76.34 869.45,-437.14 119.37,-360.81 -76.34,-750.08 -437.15,-869.45 -360.8,-119.38 -750.07,76.34 -869.44,437.15"
         style="fill:#8ec3eb;fill-opacity:1;fill-rule:nonzero;stroke:none"
         id="path70" /><path
         d="m 6957.75,6173.54 -142.91,431.96 -94.87,-31.39 -41.23,124.65 233.61,77.3 184.16,-556.6 -138.76,-45.92"
         style="fill:#ffffff;fill-opacity:1;fill-rule:nonzero;stroke:none"
         id="path72" /><path
         d="m 7373.21,5461.75 -35.99,46.61 -54.26,97.99 -74.54,25.72 -79.3,-46.05 c 0,0 18.6,-33.11 46.57,-29.42 27.98,3.7 41.97,5.55 41.97,5.55 l 29.49,-91.52 c 0,0 0.52,-1.97 1.96,-5.08 l 11.5,-34.3 c 0,0 40.35,-27.88 47.08,-21.15 1.7,1.71 5.61,4.73 10.45,8.28 11.62,-5.03 11.66,-5.05 11.66,-5.05 l 43.41,48.42"
         style="fill:#de866d;fill-opacity:1;fill-rule:nonzero;stroke:none"
         id="path74" /><path
         d="m 9173.56,1737.91 17.61,-76.94 -136.29,-112.17 -94.56,59.33 59.35,94.57 136.29,112.16 17.6,-76.95"
         style="fill:#313d57;fill-opacity:1;fill-rule:nonzero;stroke:none"
         id="path76" /><path
         d="m 8883.82,4116.11 53.47,-233.71 -79.88,-1084.01 318.54,-1033.84 -145.66,-65.45 -645.9,1196.01 -74.6,380.9 -32.61,804.2 606.64,35.9"
         style="fill:#4f76c3;fill-opacity:1;fill-rule:nonzero;stroke:none"
         id="path78" /><path
         d="m 7792.54,4130.55 55.43,-1006.12 275.9,-1283.6 145.67,9.72 12.24,1202.18 119.56,1209.36 -608.8,-131.54"
         style="fill:#4f76c3;fill-opacity:1;fill-rule:nonzero;stroke:none"
         id="path80" /><path
         d="m 8272.8,1789.06 -152.27,-89.27 -84.02,73.51 73.51,84.01 157.53,10.51 5.25,-78.76"
         style="fill:#313d57;fill-opacity:1;fill-rule:nonzero;stroke:none"
         id="path82" /><path
         d="m 8533.1,5575.2 c 94.55,-24.29 178.19,-75.92 234.76,-181.91 49.28,-92.31 67.47,-198.52 84.91,-302.46 49.83,-297.63 71.14,-624.63 182.85,-907.47 48.56,-122.94 93.86,-195.56 85.91,-337.12 -2.17,-38.64 -92.33,-398.12 -91.67,-398.54 -124.47,80.01 -275.71,117.53 -423.14,105 -132.2,-11.24 -1003.87,-280.93 -1102.56,-144.93 -21.5,29.63 122.58,450.23 135.56,511.91 42.6,202.52 85.19,405.05 128.44,607.44 47.75,224.65 96.04,450.26 177.26,665.09 27.47,72.68 58.66,143.95 93.4,213.44 21.94,43.89 65.51,169.79 111.16,191.18 37.68,17.65 125.74,-1.76 168.65,-1.6 71.92,0.26 144.43,-2.04 214.47,-20.03"
         style="fill:#bcbebf;fill-opacity:1;fill-rule:nonzero;stroke:none"
         id="path84" /><path
         d="m 8573.34,5996.12 c -89.34,190.06 -386.47,224.3 -426,-13.81 -11.87,-71.55 -15.22,-146.35 7,-215.39 22.2,-69.05 73.55,-131.7 142.96,-152.75 l 1.19,-0.34 c -0.37,-18.65 -0.75,-37.31 -1.12,-55.96 -0.08,-4.01 -0.02,-8.42 2.6,-11.46 2.97,-3.46 8.11,-3.85 12.67,-3.98 22.29,-0.63 44.59,-1.27 66.88,-1.91 11.05,-0.31 22.55,-0.54 32.6,4.06 22,10.07 28.22,38.64 26.35,62.76 -0.45,5.77 -1.2,11.57 -2,17.37 124.3,59.97 195.27,247.16 136.87,371.41"
         style="fill:#de866d;fill-opacity:1;fill-rule:nonzero;stroke:none"
         id="path86" /><path
         d="m 8243.29,6315.59 c -53.12,8.86 -99.39,-41.99 -149.01,-68.24 -41.29,-21.84 -87.75,-27 -130.45,-44.95 -42.72,-17.95 -85.06,-56.24 -86.81,-105.09 -42.55,23.11 -88.66,46.86 -136.94,38.43 -48.28,-8.42 -93.97,-65.08 -75.64,-112.77 16.43,-42.71 71.57,-53.67 89.23,-95.74 27.95,-66.54 -52.58,-167.69 0.36,-212.44 12.73,-10.76 30.26,-13.61 42.76,-24.67 15.51,-13.74 20.17,-36.96 26.82,-57.63 30.16,-93.74 123,-156.26 216,-145.45 58.15,26 105.14,81.02 126.87,144.57 26.21,76.6 -14.54,104.23 -20.21,176.67 -6.2,79.17 20.41,162.42 71.26,222.92 33.09,39.37 80.03,72.98 129.07,76.78 19.94,1.55 13.39,-14.94 36.06,0.06 9.72,6.44 23.28,31.21 26.22,43.14 -52.82,44.03 -95.7,152.74 -165.59,164.41"
         style="fill:#313d57;fill-opacity:1;fill-rule:nonzero;stroke:none"
         id="path88" /><path
         d="m 8254.81,5591.7 -496.16,-473.34 c 0,0 -1.28,-0.6 -3.58,-1.7 l -400.71,389.65 -90.6,-88.58 416.09,-633.32 c 4.22,-8.42 6.72,-13.31 6.72,-13.31 l 517.63,235.88 222.77,478.31 -172.16,106.41"
         style="fill:#bcbebf;fill-opacity:1;fill-rule:nonzero;stroke:none"
         id="path90" /><path
         d="m 7466.99,6114.59 -52.88,135.97 57.13,25.14 56.83,-85.09 21.5,24.42 31.07,-121.87 -55.85,-34.14 -57.8,55.57"
         style="fill:#de866d;fill-opacity:1;fill-rule:nonzero;stroke:none"
         id="path92" /><path
         d="m 8529.59,5571.71 c -66.39,29.47 -155.15,22.61 -245.16,25.37 -105.74,3.23 -211.48,6.46 -317.22,9.71 l -383.25,531.17 -107.38,-73.42 313.49,-727.42 c 138.48,-35.61 276.96,-71.23 415.45,-106.84 76.36,-19.64 164.94,-57.68 243.84,-62.3 116.08,-6.8 202.1,132.19 185.45,242.02 -13.95,92.08 -52.54,138.33 -105.22,161.71"
         style="fill:#bcbebf;fill-opacity:1;fill-rule:nonzero;stroke:none"
         id="path94" /><path
         d="m 8817.55,6202.92 c 27.34,-8.13 57.2,-7.54 83.17,-19.48 39.02,-17.94 35.91,-58.7 46.41,-94.35 11.63,-39.47 28.61,-92.47 53.95,-123.46 18.28,-22.32 44.16,-35.33 66.59,-52.71 22.43,-17.37 42.87,-42.8 41.85,-73.38 -0.97,-28.99 -20.93,-54.67 -24.29,-83.57 -4.23,-43.1 2.84,-65.34 -11.25,-109.22 -7.27,-22.64 -15.38,-46.61 -32.74,-61.84 -22.88,-20.06 -54.94,-19.09 -83.03,-13.89 -28.07,5.21 -57.05,13.54 -84.99,4.68 -60.58,-19.19 -50.42,-80.31 -67.36,-131.08 -25.77,-77.26 -116.66,-121.02 -185.1,-92.17 -58.02,24.46 -90.64,92.92 -86.81,159.85 1.91,33.51 15.82,64.53 17.38,98.08 1.5,32.35 -15.95,77.51 13.85,102.68 7.25,6.13 16.47,9.27 23.01,16.29 5.31,5.66 8.32,13.35 10.26,21.03 6.72,26.65 1.34,55.93 -14.07,76.7 -11.07,14.92 -27.12,25.96 -33.75,43.85 -7.6,20.49 -0.88,44.18 0.86,66.64 4.22,54.31 -24.58,108.16 -69.5,129.95 -29.59,14.36 -56.34,23 -82.05,44.51 -3.91,3.27 -62.34,56.76 -64.07,45.47 3.02,19.67 14.83,36.73 26.78,52.35 19.64,25.68 41.38,50.65 68.68,65.76 88.25,48.85 90.4,-68.35 160.79,-54.18 16.98,3.41 30,18.7 45.38,27.68 29.07,16.97 64.29,10.1 93.47,-3.52 29.18,-13.62 55.78,-33.51 86.58,-42.67"
         style="fill:#313d57;fill-opacity:1;fill-rule:nonzero;stroke:none"
         id="path96" /><path
         d="m 3505.06,2991.31 77.18,-22.47 61.59,35.08 14.07,-9.28 -10.72,-17.77 59.46,14.48 44.66,-21.73 11.03,-65.17 -32.39,-60.1 -65.87,-4.1 -70.26,34.98 -106.97,26.19 18.22,89.89"
         style="fill:#f5cabd;fill-opacity:1;fill-rule:nonzero;stroke:none"
         id="path98" /><path
         d="m 3582.36,3002.9 -465.73,221.04 -54.38,364.6 L 2710,3720 l 70.49,-630.48 802.15,-243.39 -0.28,156.77"
         style="fill:#8ec3eb;fill-opacity:1;fill-rule:nonzero;stroke:none"
         id="path100" /></g></g></svg>
