<?xml version="1.0" encoding="UTF-8" standalone="no"?>
<svg
   xmlns:dc="http://purl.org/dc/elements/1.1/"
   xmlns:cc="http://creativecommons.org/ns#"
   xmlns:rdf="http://www.w3.org/1999/02/22-rdf-syntax-ns#"
   xmlns:svg="http://www.w3.org/2000/svg"
   xmlns="http://www.w3.org/2000/svg"
   xmlns:sodipodi="http://sodipodi.sourceforge.net/DTD/sodipodi-0.dtd"
   xmlns:inkscape="http://www.inkscape.org/namespaces/inkscape"
   version="1.1"
   id="svg2"
   xml:space="preserve"
   width="3680"
   height="2453.3333"
   viewBox="0 0 3680 2453.3333"
   sodipodi:docname="5272.eps"><metadata
     id="metadata8"><rdf:RDF><cc:Work
         rdf:about=""><dc:format>image/svg+xml</dc:format><dc:type
           rdf:resource="http://purl.org/dc/dcmitype/StillImage" /></cc:Work></rdf:RDF></metadata><defs
     id="defs6" /><sodipodi:namedview
     pagecolor="#ffffff"
     bordercolor="#666666"
     borderopacity="1"
     objecttolerance="10"
     gridtolerance="10"
     guidetolerance="10"
     inkscape:pageopacity="0"
     inkscape:pageshadow="2"
     inkscape:window-width="640"
     inkscape:window-height="480"
     id="namedview4" /><g
     id="g10"
     inkscape:groupmode="layer"
     inkscape:label="ink_ext_XXXXXX"
     transform="matrix(1.3333333,0,0,-1.3333333,0,2453.3333)"><g
       id="g12"
       transform="scale(0.1)"><path
         d="M 0,18400 V 0 H 27600 V 18400 H 0"
         style="fill:#ffffff;fill-opacity:1;fill-rule:nonzero;stroke:none"
         id="path14" /><path
         d="m 22570.7,1809.4 c 0,0 1697.4,-402.4 2533,1421.3 1084,2365.9 -437.5,4613.5 -3062.1,4775.4 -3785.4,233.4 -1687.5,6277.1 -7660.8,4637.3 -1679.7,-461.1 -5332.9,1919.1 -7483.48,-2114 C 6531.64,9843.67 5438.48,9877.33 3982.05,8707.39 1412.88,6643.6 2337.76,1787.5 4502.46,1765.4 c 2164.7,-22 18068.24,44 18068.24,44"
         style="fill:#fcecdb;fill-opacity:1;fill-rule:nonzero;stroke:none"
         id="path16" /><path
         d="m 4880.89,1774.2 c 0,0 78.9,517 1085.72,656.1 1006.83,139.1 1943,1254.4 3603.37,1092.5 1660.42,-161.8 3038.12,-1177.5 4928.12,-866.3 1890,311.2 3073.5,-85.4 3497.4,-398.3 423.9,-312.8 2178.4,73.4 2308,-499.8 l -15422.61,15.8"
         style="fill:#a8d29f;fill-opacity:1;fill-rule:nonzero;stroke:none"
         id="path18" /><path
         d="m 9019.59,14094.2 c 0,0 -1136.34,55.5 -533.53,-3407.7 0,0 405.54,-1175.64 -106.4,-1933.35 H 15915.7 V 14094.2 H 9019.59"
         style="fill:#afcdfb;fill-opacity:1;fill-rule:nonzero;stroke:none"
         id="path20" /><path
         d="m 9793.59,5090 c 0,0 -526.48,614.2 -32.46,1004.4 0,0 360.87,218.5 655.07,200.7 0,0 -416.9,-699.1 -282,-768.7 134.9,-69.5 408.4,812.6 408.4,812.6 0,0 821.1,79.6 1085.3,-47.4 0,0 -702,-574.5 -554.1,-608.7 147.8,-34.2 906.1,529.7 906.1,529.7 0,0 764.2,-130.1 723.5,-596.3 -40.8,-466.2 -304.1,-610.2 -419.9,-597.8 -115.7,12.4 -792.8,270.8 -807.5,176 -14.8,-94.8 392.8,-404.8 678.2,-419.3 0,0 -538.8,-594.2 -897,-422.7 -358.1,171.5 -388.6,443.3 -611.9,545.3 -223.2,102 -413.8,101.7 -321.6,-2.3 92.2,-104 496.2,-205 623.8,-430.8 127.7,-225.9 242.2,-378.1 -128.3,-322.4 -370.5,55.7 -972.73,326.9 -999.17,637.3 -26.44,310.4 -26.44,310.4 -26.44,310.4"
         style="fill:#599dad;fill-opacity:1;fill-rule:nonzero;stroke:none"
         id="path22" /><path
         d="m 12327.9,5603.7 c 0,0 -2075.9,80 -2534.31,-513.7 0,0 -101.38,-303.6 -413.36,-580.1 l -48.63,-132.5 c 0,0 359.72,379.3 488.43,402.2 0,0 -201.29,735.5 2507.87,824.1"
         style="fill:#599dad;fill-opacity:1;fill-rule:nonzero;stroke:none"
         id="path24" /><path
         d="m 9380.23,4509.9 c 0,0 -445.55,-329.5 -476.5,-918.3 l 80.86,-7.2 c 0,0 142.31,608.8 399.52,846.8 257.2,238.1 -3.88,78.7 -3.88,78.7"
         style="fill:#599dad;fill-opacity:1;fill-rule:nonzero;stroke:none"
         id="path26" /><path
         d="m 7952.84,5862.5 c 0,0 837.49,469 446.66,1105.5 0,0 -312.66,390.8 -647.65,491.3 0,0 178.66,-949.2 0,-971.5 -178.68,-22.3 -122.84,1072 -122.84,1072 0,0 -882.16,424.3 -1228.33,390.8 0,0 547.16,-926.8 368.5,-904.5 -178.66,22.4 -792.83,960.4 -792.83,960.4 0,0 -904.49,167.5 -1049.66,-368.5 -145.17,-536 89.34,-804 223.33,-837.5 133.99,-33.5 993.83,-22.4 971.49,-134 -22.32,-111.7 -602.99,-290.3 -926.82,-189.9 0,0 357.33,-882.1 826.33,-837.4 468.99,44.6 614.16,334.9 904.5,357.3 290.32,22.3 502.49,-55.9 357.32,-134 -145.16,-78.2 -636.49,-25.6 -870.99,-225 -234.5,-199.3 -424.34,-322.2 11.16,-411.5 435.5,-89.3 1217.16,-33.5 1373.49,301.5 156.34,335 156.34,335 156.34,335"
         style="fill:#6bb7bf;fill-opacity:1;fill-rule:nonzero;stroke:none"
         id="path28" /><path
         d="m 5339.85,7470.5 c 0,0 2344.99,-759.4 2612.99,-1608 0,0 -11.17,-379.7 223.33,-815.2 v -167.5 c 0,0 -245.66,569.5 -379.67,647.7 0,0 524.84,737 -2456.65,1943"
         style="fill:#6bb7bf;fill-opacity:1;fill-rule:nonzero;stroke:none"
         id="path30" /><path
         d="m 8176.17,5047.3 c 0,0 361.63,-549.1 155.47,-1217.6 l -93.04,25 c 0,0 90.31,736.3 -98.89,1106.6 -189.2,370.3 36.46,86 36.46,86"
         style="fill:#6bb7bf;fill-opacity:1;fill-rule:nonzero;stroke:none"
         id="path32" /><path
         d="m 9285.22,6509.3 c 0,0 -1103.97,618.2 -588.77,1457.2 0,0 412.14,515.23 853.73,647.7 0,0 -235.51,-1251.2 0,-1280.6 235.51,-29.4 161.91,1413.08 161.91,1413.08 0,0 1162.91,559.35 1619.21,515.19 0,0 -721.3,-1221.77 -485.8,-1192.27 235.5,29.4 1045.1,1265.87 1045.1,1265.87 0,0 1192.3,220.8 1383.7,-485.75 191.3,-706.52 -117.8,-1059.82 -294.4,-1104.02 -176.7,-44.1 -1310.1,-29.4 -1280.6,-176.6 29.4,-147.2 794.8,-382.7 1221.7,-250.2 0,0 -471,-1162.9 -1089.3,-1104 -618.2,58.9 -809.6,441.6 -1192.3,471 -382.7,29.5 -662.35,-73.6 -471,-176.6 191.4,-103.1 839,-33.8 1148.1,-296.6 309.2,-262.7 559.4,-424.7 -14.7,-542.4 -574,-117.8 -1604.43,-44.2 -1810.5,397.4 -206.08,441.6 -206.08,441.6 -206.08,441.6"
         style="fill:#86d1cd;fill-opacity:1;fill-rule:nonzero;stroke:none"
         id="path34" /><path
         d="m 12729.6,8628.92 c 0,0 -3091.1,-1000.92 -3444.38,-2119.62 0,0 14.72,-500.5 -294.38,-1074.5 V 5214 c 0,0 323.83,750.7 500.46,853.7 0,0 -691.83,971.5 3238.3,2561.22"
         style="fill:#6bb7bf;fill-opacity:1;fill-rule:nonzero;stroke:none"
         id="path36" /><path
         d="m 8990.84,5434.8 c 0,0 -476.71,-723.9 -204.95,-1605.1 l 122.65,32.9 c 0,0 -119.06,970.6 130.36,1458.7 249.4,488.2 -48.06,113.5 -48.06,113.5"
         style="fill:#6bb7bf;fill-opacity:1;fill-rule:nonzero;stroke:none"
         id="path38" /><path
         d="m 9248.03,1918.8 c 1194.37,0 2162.47,968.2 2162.47,2162.5 H 7085.52 c 0,-1194.3 968.18,-2162.5 2162.51,-2162.5"
         style="fill:#efcbab;fill-opacity:1;fill-rule:nonzero;stroke:none"
         id="path40" /><path
         d="m 9780.16,1935.3 c -87.96,-11 -177.64,-16.5 -268.68,-16.5 -1194.29,0 -2162.41,968.2 -2162.41,2162.5 h 537.24 c 0,-1103.4 826.3,-2013.7 1893.85,-2146"
         style="fill:#ffebdc;fill-opacity:1;fill-rule:nonzero;stroke:none"
         id="path42" /><path
         d="M 11440.4,1808.7 H 7055.65 v 0 c 0,147.4 119.45,266.8 266.8,266.8 h 3851.15 c 147.4,0 266.8,-119.4 266.8,-266.8 v 0"
         style="fill:#efcbab;fill-opacity:1;fill-rule:nonzero;stroke:none"
         id="path44" /><path
         d="M 11459.7,4015 H 7014.4 v 66.3 h 4445.3 V 4015"
         style="fill:#efcdaf;fill-opacity:1;fill-rule:nonzero;stroke:none"
         id="path46" /><path
         d="m 17073.2,12303.7 c 0,0 -378.8,714.8 188.8,987 0,0 400,133.9 683.2,52 0,0 -560.2,-590.5 -443.9,-688 116.3,-97.4 576.8,703.1 576.8,703.1 0,0 818.6,-102.6 1048.5,-284.5 0,0 -811,-406.4 -674.3,-472.2 136.8,-65.8 1000.3,317.9 1000.3,317.9 0,0 717.1,-294.7 575,-740.6 -142.1,-445.9 -430.6,-528.5 -540.9,-491 -110.2,37.5 -714,438.2 -749.2,348.9 -35.2,-89.3 294.4,-481.1 569.6,-557.9 0,0 -656.1,-461.5 -967.8,-215.5 -311.7,245.9 -281.9,517.8 -477.3,666.3 -195.4,148.5 -381.4,190 -314.3,68.4 67.1,-121.7 439.1,-309 514.1,-557.3 74.9,-248.4 153.3,-422.1 -196,-286.4 -349.2,135.8 -877.3,532.4 -834.9,841.1 42.3,308.7 42.3,308.7 42.3,308.7"
         style="fill:#599dad;fill-opacity:1;fill-rule:nonzero;stroke:none"
         id="path48" /><path
         d="m 19658.4,12248.6 c 0,0 -2007.6,533.7 -2585.2,55.1 0,0 -165.5,-274 -530.6,-475.3 l -76.5,-118.6 c 0,0 434.2,291.1 564.8,285.2 0,0 -35,761.7 2627.5,253.6"
         style="fill:#599dad;fill-opacity:1;fill-rule:nonzero;stroke:none"
         id="path50" /><path
         d="m 16542.6,11828.4 c 0,0 -507,-223.7 -666.4,-791.3 l 77.3,-24.8 c 0,0 272.4,562.7 575.6,738.5 303.2,175.8 13.5,77.6 13.5,77.6"
         style="fill:#599dad;fill-opacity:1;fill-rule:nonzero;stroke:none"
         id="path52" /><path
         d="m 14578.9,13593 c 0,0 -1121.9,585.1 -631.9,1439 0,0 396.6,527.3 834.1,672.8 0,0 -198.2,-1257.6 38.1,-1280 236.3,-22.4 119.8,1417.3 119.8,1417.3 0,0 1145.7,593.7 1603.1,563.1 0,0 -684.6,-1242.6 -450.1,-1206.2 234.6,36.4 1007,1296.4 1007,1296.4 0,0 1185.2,256.2 1397.5,-444.3 212.3,-700.5 -86.2,-1062.9 -261.4,-1112.2 -175.3,-49.5 -1308.6,-68.5 -1274.8,-214.7 33.8,-146.3 805.9,-358.9 1228.6,-213.8 0,0 -436.2,-1176.3 -1055.9,-1135.9 -619.7,40.4 -822.3,417.3 -1205.8,435.3 -383.4,18.1 -659.9,-93.3 -465.5,-190.5 194.3,-97.4 839.6,-8.8 1156.4,-262.3 316.8,-253.5 571.8,-407.9 1.5,-542.6 -570.3,-134.9 -1602.5,-92 -1821.6,343.3 -219.1,435.3 -219.1,435.3 -219.1,435.3"
         style="fill:#86d1cd;fill-opacity:1;fill-rule:nonzero;stroke:none"
         id="path54" /><path
         d="m 17958.7,15814.2 c 0,0 -3060,-1092.5 -3379.8,-2221.2 0,0 29.6,-499.9 -262.3,-1082.9 l 6.6,-220.7 c 0,0 301.3,760 474.8,868.3 0,0 -720.4,950.5 3160.7,2656.5"
         style="fill:#6bb7bf;fill-opacity:1;fill-rule:nonzero;stroke:none"
         id="path56" /><path
         d="m 14316.6,12510.1 c 0,0 -454.9,-737.7 -157,-1610.4 l 121.6,36.5 c 0,0 -147.9,966.6 86.8,1462 234.8,495.3 -51.4,111.9 -51.4,111.9"
         style="fill:#6bb7bf;fill-opacity:1;fill-rule:nonzero;stroke:none"
         id="path58" /><path
         d="M 9497.43,12044.3 V 1783.5 H 17365.3 V 12044.3 H 9497.43"
         style="fill:#9abcef;fill-opacity:1;fill-rule:nonzero;stroke:none"
         id="path60" /><path
         d="M 9754.66,12044.3 V 1783.5 H 17490.2 V 12044.3 H 9754.66"
         style="fill:#e9f3fe;fill-opacity:1;fill-rule:nonzero;stroke:none"
         id="path62" /><path
         d="m 22944.7,1808.7 h -1558.8 c -83.5,70.8 57.8,231.7 205.5,242.5 64.1,4.9 145.3,-8.5 237.9,-28.1 21.5,284.9 144,1565.7 605.6,1514.2 519.1,-57.6 0,-564 -146.7,-863.8 -108.7,-222.1 -223.4,-540.6 -275.8,-690.9 42.2,-9.1 85.8,-18.1 130.4,-26.3 68.8,211.3 324.8,921.9 650.3,880.5 382.3,-48.5 228.6,-333.4 -42.3,-502.5 -198.8,-124.4 -442.8,-301.1 -558.8,-386.5 98.3,-16.1 200.8,-26.9 304.8,-24.5 267.1,6.4 397.4,-72.3 447.9,-114.6"
         style="fill:#a8d29f;fill-opacity:1;fill-rule:nonzero;stroke:none"
         id="path64" /><path
         d="m 17490.3,12044.4 c -0.1,-0.1 -0.1,-0.1 -0.1,-0.1 H 9754.63 c 42.79,585 -21.67,1009.7 -124.98,1315.2 -198.38,587.3 -540.28,734.7 -540.28,734.7 h 7295.43 c 622.6,0 1105.4,-375.1 1236.8,-873 4.9,-18.8 9.5,-37.4 13.5,-56 124.7,-569.7 -139.7,-1110.4 -144.8,-1120.8"
         style="fill:#e9f3fe;fill-opacity:1;fill-rule:nonzero;stroke:none"
         id="path66" /><path
         d="m 17490.3,12044.4 c -0.1,-0.1 -0.1,-0.1 -0.1,-0.1 H 9754.63 c 42.79,585 -21.67,1009.7 -124.98,1315.2 790.55,-144.8 2748.45,-453.2 4844.25,-401.3 1355.8,33.7 2427.2,124.4 3161.2,207 124.7,-569.7 -139.7,-1110.4 -144.8,-1120.8"
         style="fill:#d8e8fd;fill-opacity:1;fill-rule:nonzero;stroke:none"
         id="path68" /><path
         d="m 15446.8,9678.25 h -4102.3 c -42.1,0 -76.5,34.47 -76.5,76.59 v 39.27 c 0,42.12 34.4,76.57 76.5,76.57 h 4102.3 c 42.1,0 76.6,-34.45 76.6,-76.57 v -39.27 c 0,-42.12 -34.5,-76.59 -76.6,-76.59"
         style="fill:#bbd5fc;fill-opacity:1;fill-rule:nonzero;stroke:none"
         id="path70" /><path
         d="m 13859.1,9354.51 h -2530.7 c -33.2,0 -60.4,27.21 -60.4,60.45 v 71.53 c 0,33.26 27.2,60.45 60.4,60.45 h 2530.7 c 33.2,0 60.4,-27.19 60.4,-60.45 v -71.53 c 0,-33.24 -27.2,-60.45 -60.4,-60.45"
         style="fill:#bbd5fc;fill-opacity:1;fill-rule:nonzero;stroke:none"
         id="path72" /><path
         d="m 10872.8,9385.67 v 393.05 h -51.8 c -31.5,0 -47.2,13.08 -47.2,39.3 0,18.86 12.3,32.23 37,40.09 12.5,4.18 32.6,7.34 60.1,9.44 27.5,2.09 49.6,3.13 66.4,3.13 16.2,0 26.5,-3.28 30.7,-9.82 4.1,-6.55 6.3,-23.18 6.3,-49.91 v -425.28 h 53.4 c 34.6,0 51.9,-14.93 51.9,-44.81 0,-31.44 -17.3,-47.16 -51.9,-47.16 h -215.4 c -15.2,0 -27.9,4.05 -38.1,12.18 -10.2,8.12 -15.3,19.52 -15.3,34.2 0,30.38 17.5,45.59 52.6,45.59 h 61.3"
         style="fill:#bbd5fc;fill-opacity:1;fill-rule:nonzero;stroke:none"
         id="path74" /><path
         d="m 15446.8,7651.8 h -4102.3 c -42.1,0 -76.5,34.4 -76.5,76.6 v 39.2 c 0,42.1 34.4,76.6 76.5,76.6 h 4102.3 c 42.1,0 76.6,-34.5 76.6,-76.6 v -39.2 c 0,-42.2 -34.5,-76.6 -76.6,-76.6"
         style="fill:#d2e4fd;fill-opacity:1;fill-rule:nonzero;stroke:none"
         id="path76" /><path
         d="m 13859.1,7328 h -2530.7 c -33.2,0 -60.4,27.2 -60.4,60.5 v 71.5 c 0,33.3 27.2,60.5 60.4,60.5 h 2530.7 c 33.2,0 60.4,-27.2 60.4,-60.5 v -71.5 c 0,-33.3 -27.2,-60.5 -60.4,-60.5"
         style="fill:#d2e4fd;fill-opacity:1;fill-rule:nonzero;stroke:none"
         id="path78" /><path
         d="m 11087.7,7367.3 c 0,-26.2 -18.3,-39.3 -54.9,-39.3 H 10805 c -32.9,0 -49.4,13.2 -49.4,39.6 0,8.4 4.4,18.1 13.2,29.2 13,14.8 32,37.1 57,66.7 38,47.7 69.7,88.9 95.2,123.7 8.8,11.5 21.3,29.1 37.5,52.8 13.4,23.6 20.1,43.5 20.1,59.7 0,18.1 -5.8,33 -17.3,44.8 -11.6,11.8 -26.4,17.7 -44.5,17.7 -17.6,0 -32.9,-5.5 -45.9,-16.6 -8.8,-7.5 -15.7,-21.3 -20.8,-41.7 -6.5,-26.4 -10.6,-41.7 -12.5,-45.9 -6.9,-14.8 -18.3,-22.2 -34,-22.2 -13.9,0 -24.8,5.1 -32.7,15.3 -7.4,8.8 -11.1,20.4 -11.1,34.7 0,16.2 2.5,32.7 7.6,49.3 11.2,35.7 30.8,63 59.1,82 26.8,18.1 59.5,27.1 97.9,27.1 42.2,0 77.4,-12.8 105.6,-38.3 29.2,-26.9 43.8,-61.2 43.8,-102.9 0,-31.1 -10.4,-63.1 -31.3,-96.1 -11.5,-18.1 -35.4,-50.1 -71.5,-96 -18.5,-23.7 -47.7,-58 -87.5,-103 h 150 c 36.1,0 54.2,-13.5 54.2,-40.6"
         style="fill:#d2e4fd;fill-opacity:1;fill-rule:nonzero;stroke:none"
         id="path80" /><path
         d="m 15446.8,5961.3 h -4102.3 c -42.1,0 -76.5,34.5 -76.5,76.6 v 39.3 c 0,42.1 34.4,76.6 76.5,76.6 h 4102.3 c 42.1,0 76.6,-34.5 76.6,-76.6 v -39.3 c 0,-42.1 -34.5,-76.6 -76.6,-76.6"
         style="fill:#d2e4fd;fill-opacity:1;fill-rule:nonzero;stroke:none"
         id="path82" /><path
         d="m 13859.1,5637.6 h -2530.7 c -33.2,0 -60.4,27.2 -60.4,60.4 v 71.6 c 0,33.2 27.2,60.4 60.4,60.4 h 2530.7 c 33.2,0 60.4,-27.2 60.4,-60.4 V 5698 c 0,-33.2 -27.2,-60.4 -60.4,-60.4"
         style="fill:#d2e4fd;fill-opacity:1;fill-rule:nonzero;stroke:none"
         id="path84" /><path
         d="m 11087.7,5798.8 c 0,-49.2 -17.3,-88.8 -51.8,-118.6 -32.7,-28.4 -74.1,-42.6 -124.3,-42.6 -38.8,0 -72,9.2 -99.4,27.7 -43.6,29.3 -65.4,64.6 -65.4,105.8 0,11.8 3.8,22 11.4,30.5 7.6,8.5 17.3,12.8 29.1,12.8 12.3,0 23.9,-8.3 34.8,-24.8 17.5,-27.5 27.7,-42.7 30.6,-45.5 15.6,-16.6 35.7,-24.8 60.3,-24.8 33.2,0 56.8,12.3 71,36.9 6.6,12.3 10,27.9 10,46.9 0,46.3 -27.3,72.1 -81.7,77.3 -30.8,2.9 -46.2,15.9 -46.2,39.1 0,17 9,29.1 26.8,36.2 33.4,12.3 50.4,18.7 50.8,19.2 17.9,11.8 26.8,32.4 26.8,61.8 0,17.5 -5.2,31.3 -15.5,41.5 -10.4,10.2 -24.3,15.3 -41.8,15.3 -21.7,0 -38.7,-5.2 -50.9,-15.6 -10.4,-9 -19.2,-24.4 -26.2,-46.2 -5.7,-16.6 -16.5,-24.8 -32.6,-24.8 -11.3,0 -20.6,4.9 -27.9,14.9 -7.3,9.9 -11,20.8 -11,32.6 0,14.7 4,29.4 12.1,44.1 13.2,24.6 33.6,43.7 61,57.5 25.1,12.8 52.6,19.1 82.4,19.1 40.2,0 73.7,-12.1 100.5,-36.5 26.7,-24.4 40.1,-56.5 40.1,-96.2 0,-47.9 -19.9,-85.7 -59.6,-113.7 57.7,-23.2 86.6,-66.5 86.6,-129.9"
         style="fill:#d2e4fd;fill-opacity:1;fill-rule:nonzero;stroke:none"
         id="path86" /><path
         d="m 14969,11362.8 h -2555.6 c -43.7,0 -79.5,35.7 -79.5,79.5 v 64.5 c 0,43.7 35.8,79.5 79.5,79.5 H 14969 c 43.7,0 79.5,-35.8 79.5,-79.5 v -64.5 c 0,-43.8 -35.8,-79.5 -79.5,-79.5"
         style="fill:#bbd5fc;fill-opacity:1;fill-rule:nonzero;stroke:none"
         id="path88" /><path
         d="m 15635.4,11018.1 h -3888.3 c -53.7,0 -97.6,43.9 -97.6,97.5 v 28.5 c 0,53.6 43.9,97.5 97.6,97.5 h 3888.3 c 53.6,0 97.5,-43.9 97.5,-97.5 v -28.5 c 0,-53.6 -43.9,-97.5 -97.5,-97.5"
         style="fill:#bbd5fc;fill-opacity:1;fill-rule:nonzero;stroke:none"
         id="path90" /><path
         d="m 13391.5,8640.67 c -842.7,0 -1642.4,105.75 -2238.5,256.89 -602.3,152.7 -926.7,402.28 -926.7,623.65 0,200.63 264.3,385.16 764.5,533.59 v 0 c -479.3,-142.25 -735.7,-351.19 -735.7,-533.59 0,-202.41 332.3,-402.76 911.7,-549.66 594.1,-150.61 1384.1,-233.56 2224.7,-233.56 840.5,0 1630.6,82.95 2224.6,233.56 579.4,146.9 911.7,347.25 911.7,549.66 0,214.35 -349.9,480.79 -913.2,695.19 -640.4,243.9 -1430,334.4 -2223.1,334.4 -1489.1,0 -2102,-173.8 -2633.9,-391.7 v 0 c 534.2,218.8 1139.6,466.8 2633.9,466.8 796.3,0 1589.2,-135 2232.7,-380 575.2,-219 932.5,-496.68 932.5,-724.69 0,-221.37 -331.7,-427.37 -934,-580.08 -596.1,-151.14 -1388.5,-300.46 -2231.2,-300.46"
         style="fill:#c65447;fill-opacity:1;fill-rule:nonzero;stroke:none"
         id="path92" /><path
         d="m 18508.8,6665.2 c 0,0 -27.8,-269.8 -58.2,-320.8 -30.5,-51.1 -160.1,-214.1 -215.3,-246.1 -55.2,-32 33.7,214.8 22.5,262.9 -11.3,48 -45.5,-87.7 -69.8,-90.9 -24.4,-3.2 -18.1,119 -19,163.4 -0.9,44.5 118.4,154.2 160.5,248.8 42,94.6 179.3,-17.3 179.3,-17.3"
         style="fill:#ffb27d;fill-opacity:1;fill-rule:nonzero;stroke:none"
         id="path94" /><path
         d="m 15194.4,9153.32 -62,116.97 c 0,0 30.8,208.47 -230.4,340.33 0,0 -95.5,38.87 -149.4,-38.99 -49.6,-71.72 94.6,-58.76 86.9,-181.44 -7.8,-122.68 50.5,-194.67 131.5,-234.63 l 67,-77.61 156.4,75.37"
         style="fill:#ffb27d;fill-opacity:1;fill-rule:nonzero;stroke:none"
         id="path96" /><path
         d="m 17662.8,9432.98 c 0,0 -224.3,-1100.88 -1458.6,-1460.68 -385.4,-112.3 -1260.7,1156.32 -1260.7,1156.32 0,0 30.7,116.95 223.5,90.08 0,0 852.4,-564.27 959.7,-625.58 95.2,-54.38 721.4,699.2 1006.8,820.77 285.5,121.55 529.3,19.09 529.3,19.09"
         style="fill:#e58638;fill-opacity:1;fill-rule:nonzero;stroke:none"
         id="path98" /><path
         d="m 15524.5,9473.43 -35,-227.88 -1146.3,176.06 35,227.88 1146.3,-176.06"
         style="fill:#c65447;fill-opacity:1;fill-rule:nonzero;stroke:none"
         id="path100" /><path
         d="m 14094.2,9576.48 249,-154.87 35,227.88 z"
         style="fill:#ffb27d;fill-opacity:1;fill-rule:nonzero;stroke:none"
         id="path102" /><path
         d="m 15646.2,9377.37 -11.1,-72.05 c -6.8,-44.31 -48.3,-74.71 -92.6,-67.91 l -53,8.14 35,227.88 57.7,-8.86 c 41.7,-6.42 70.4,-45.46 64,-87.2"
         style="fill:#ffb27d;fill-opacity:1;fill-rule:nonzero;stroke:none"
         id="path104" /><path
         d="m 19136.5,2512.1 c 0,0 153.1,-139.7 123.3,-239 -29.9,-99.3 -168.1,-165.5 -186.8,-286.8 -18.6,-121.4 -93.3,-187.6 -160.6,-187.6 -67.2,0 -320.5,0 -320.5,0 0,0 -49.5,85.4 70,111.1 119.6,25.8 164.6,168.4 157.2,300.8 -7.5,132.4 11.2,308.9 11.2,308.9 l 253.9,58.8 52.3,-66.2"
         style="fill:#233862;fill-opacity:1;fill-rule:nonzero;stroke:none"
         id="path106" /><path
         d="m 17257.9,2150.7 c 0,0 27.4,-318 -39.8,-351.1 l -860.3,1.7 c 0,0 0,99.3 138.1,121.4 138.2,22.1 381,103 422.1,283.2 41.1,180.2 339.9,-55.2 339.9,-55.2"
         style="fill:#233862;fill-opacity:1;fill-rule:nonzero;stroke:none"
         id="path108" /><path
         d="m 16531.5,6643.3 c 0,0 45.4,-557.5 98.7,-1227.6 72.5,-910.3 159.7,-2028.5 168.3,-2240.3 14.9,-367.9 74.7,-956.3 74.7,-956.3 0,0 141.9,-139.7 425.8,-80.8 0,0 253,839.9 325.3,1728.6 1.1,14.5 2.2,29.2 3.3,43.9 67.3,904.7 171.8,2809.7 171.8,2809.7 l -1267.9,-77.2"
         style="fill:#2b478b;fill-opacity:1;fill-rule:nonzero;stroke:none"
         id="path110" /><path
         d="m 16531.5,6643.3 c 0,0 45.4,-557.5 98.7,-1227.6 l 994.1,-1548.8 c 1.1,14.5 2.2,29.2 3.3,43.9 67.3,904.7 171.8,2809.7 171.8,2809.7 l -1267.9,-77.2"
         style="fill:#233862;fill-opacity:1;fill-rule:nonzero;stroke:none"
         id="path112" /><path
         d="m 16738.7,6577.1 c 0,0 818,-2019 1355.8,-2967.8 537.8,-948.9 705.9,-1213.6 705.9,-1213.6 0,0 308.1,121.3 336.1,204.1 0,0 -205.7,1831.7 -565.8,2278.2 -203.5,252.3 -442.6,1009.5 -453.8,1274.3 -11.2,264.8 -72.8,788.9 -72.8,788.9 l -1305.4,-364.1"
         style="fill:#2b478b;fill-opacity:1;fill-rule:nonzero;stroke:none"
         id="path114" /><path
         d="m 17814.9,9688.5 c 0,0 -553.4,-267.04 -872.5,-167.95 0,0 78.5,99.06 216,172.78 -11.1,64.04 -19.6,119.62 -24.6,166.74 -13.5,108.76 -13.5,170.33 -13.5,170.33 l 213.5,168 202.5,160.7 c -15.9,-451.9 278.6,-670.6 278.6,-670.6"
         style="fill:#ffb27d;fill-opacity:1;fill-rule:nonzero;stroke:none"
         id="path116" /><path
         d="m 18106.5,6837.7 c 1.3,-33.8 -71.1,-72.5 -103,-87 -236.9,-103.9 -457.8,-176.4 -708.1,-200.5 -295.7,-30.2 -645.5,36.2 -765.7,33.8 -12.3,0 -23.3,4.8 -33.1,13.3 -8.6,6 -14.8,362.5 -8.6,810.7 0,18.2 0,36.3 1.2,54.4 v 6.1 c 2.5,175.2 8.6,358.8 17.2,542.5 17.2,403.56 49,792.63 103,1007.7 65.1,253.74 212.3,421.69 346.1,543.73 l 110.4,96.67 c 110.5,-21.76 227,-15.72 343.6,41.06 127.6,61.64 265.1,128.09 287.2,111.19 166.9,-122.04 279.8,-396.33 339.9,-746.74 34.3,-201.79 51.5,-427.74 50.3,-664.55 0,-86.96 -2.5,-176.46 -7.4,-264.66 -29.4,-478.4 0,-894.1 17.2,-1134.5 4.9,-70.1 8.6,-124.5 9.8,-163.2"
         style="fill:#ee9849;fill-opacity:1;fill-rule:nonzero;stroke:none"
         id="path118" /><path
         d="m 18096.7,6859.7 c -1937.9,3.9 -357.4,2102.94 -357.4,2102.94 l 314,101.97 c 24.8,-215.59 37.2,-456.98 36.3,-710.01 0,-92.9 -1.7,-188.5 -5.3,-282.7 -21.3,-511.2 0,-955.3 12.4,-1212.2"
         style="fill:#e58638;fill-opacity:1;fill-rule:nonzero;stroke:none"
         id="path120" /><path
         d="m 17540,10186.3 c 0,0 -139.9,-254.93 -406.2,-326.23 -13.5,108.76 -13.5,170.33 -13.5,170.33 l 213.5,168 206.2,-12.1"
         style="fill:#ed985f;fill-opacity:1;fill-rule:nonzero;stroke:none"
         id="path122" /><path
         d="m 17023,10037.8 c 0,0 527.9,-86.35 577.5,238.2 49.5,324.6 151.1,532 -183.9,600.9 -335,68.8 -419.6,-45.3 -462.9,-149.6 -43.3,-104.4 -66.8,-658.7 69.3,-689.5"
         style="fill:#ffb27d;fill-opacity:1;fill-rule:nonzero;stroke:none"
         id="path124" /><path
         d="m 17792.4,10915.7 c 4.8,5.5 15.8,10 40.4,11.3 0,0 -19.6,12.3 -45.9,13 -5.2,34.2 -23.4,94.7 -82.3,109.4 0,0 31.7,-16.8 35.8,-53.2 -68.2,70 -214.3,121 -618.9,89.1 -533.2,-42.1 -357.5,-383.5 -288.5,-424.2 69.1,-40.7 242.8,70.8 371.5,60.6 128.6,-10.2 153,-196 196.7,-221.5 43.6,-25.5 26.4,19.6 85.5,46.2 59,26.7 64.6,-71.1 47.6,-134.7 -17.1,-63.6 64,-147.5 64,-147.5 0,0 0,0 82,88.3 82,88.3 159.3,462.2 122,541.9 -3.3,7 -6.6,14.2 -9.9,21.3"
         style="fill:#2c3a64;fill-opacity:1;fill-rule:nonzero;stroke:none"
         id="path126" /><path
         d="m 17696.4,9814.02 c 0,0 334.1,-158.18 494.2,-401.36 248.5,-377.2 536.5,-1751.96 541.8,-1879.26 5.3,-127.3 -210.2,-1026 -210.2,-1026 0,0 -218.6,14.4 -275,124.7 0,0 43.7,923.4 16,982.8 -27.6,59.4 -911.2,1238.68 -811.8,1490.34 99.3,251.65 245,708.78 245,708.78"
         style="fill:#ee9849;fill-opacity:1;fill-rule:nonzero;stroke:none"
         id="path128" /><path
         d="m 15131.3,9275.85 c 0,0 18.1,71.75 -31.7,104 -49.7,32.26 -95.5,119.97 -116.5,108.09 -43.5,-24.61 23.8,-101.15 11.5,-196.62 -4.3,-33.43 73.5,-121.03 136.7,-15.47"
         style="fill:#ffb27d;fill-opacity:1;fill-rule:nonzero;stroke:none"
         id="path130" /><path
         d="m 7014.4,2480.6 c 0,0 -784.65,2009.2 -1334.95,1689.3 -550.29,-320 1334.95,-1689.3 1334.95,-1689.3"
         style="fill:#a8d29f;fill-opacity:1;fill-rule:nonzero;stroke:none"
         id="path132" /><path
         d="m 6626.46,2480.6 c 0,0 -1036.59,895.8 -1510.09,729.5 -473.52,-166.4 1510.09,-729.5 1510.09,-729.5"
         style="fill:#a8d29f;fill-opacity:1;fill-rule:nonzero;stroke:none"
         id="path134" /><path
         d="m 17602.2,2191.2 c 0,0 238.9,830.6 519.1,732.6 280.3,-98 -519.1,-732.6 -519.1,-732.6"
         style="fill:#a8d29f;fill-opacity:1;fill-rule:nonzero;stroke:none"
         id="path136" /><path
         d="m 17820.2,2236.5 c 0,0 609.8,400.3 743.8,276.6 134,-123.8 -743.8,-276.6 -743.8,-276.6"
         style="fill:#a8d29f;fill-opacity:1;fill-rule:nonzero;stroke:none"
         id="path138" /><path
         d="m 15736.3,4015 h -4756.7 c -31.9,0 -57.9,26 -57.9,57.9 v 0 c 0,31.8 26,57.8 57.9,57.8 h 4756.7 c 31.8,0 57.9,-26 57.9,-57.8 v 0 c 0,-31.9 -26.1,-57.9 -57.9,-57.9"
         style="fill:#d2e4fd;fill-opacity:1;fill-rule:nonzero;stroke:none"
         id="path140" /><path
         d="m 15736.3,3783.3 h -4756.7 c -31.9,0 -57.9,26 -57.9,57.9 v 0 c 0,31.8 26,57.8 57.9,57.8 h 4756.7 c 31.8,0 57.9,-26 57.9,-57.8 v 0 c 0,-31.9 -26.1,-57.9 -57.9,-57.9"
         style="fill:#d2e4fd;fill-opacity:1;fill-rule:nonzero;stroke:none"
         id="path142" /><path
         d="m 15736.3,3526.5 h -4756.7 c -31.9,0 -57.9,26 -57.9,57.9 v 0 c 0,31.8 26,57.9 57.9,57.9 h 4756.7 c 31.8,0 57.9,-26.1 57.9,-57.9 v 0 c 0,-31.9 -26.1,-57.9 -57.9,-57.9"
         style="fill:#d2e4fd;fill-opacity:1;fill-rule:nonzero;stroke:none"
         id="path144" /><path
         d="m 15111.8,3269.7 h -4136.1 c -29.7,0 -54,24.4 -54,54.1 v 7.7 c 0,29.7 24.3,54 54,54 h 4136.1 c 29.7,0 54.1,-24.3 54.1,-54 v -7.7 c 0,-29.7 -24.4,-54.1 -54.1,-54.1"
         style="fill:#d2e4fd;fill-opacity:1;fill-rule:nonzero;stroke:none"
         id="path146" /><path
         d="M 25789.6,1758.4 H 2200.93 c -12.65,0 -23.01,10.3 -23.01,23 v 4.3 c 0,12.6 10.36,23 23.01,23 H 25789.6 c 12.7,0 23,-10.4 23,-23 v -4.3 c 0,-12.7 -10.3,-23 -23,-23"
         style="fill:#1c468a;fill-opacity:1;fill-rule:nonzero;stroke:none"
         id="path148" /></g></g></svg>
