<svg width="180" height="180" viewBox="0 0 180 180" fill="none" xmlns="http://www.w3.org/2000/svg">
<rect width="180" height="180" fill="#F2F2F2"/>
<g clip-path="url(#clip0_0_11)">
<path d="M-740 -180H700V790H-740V-180Z" fill="#F0F0F0"/>
<rect x="-760" y="-135" width="1470" height="997" fill="#FAFAFA"/>
<rect x="-413.5" y="-65.5" width="1035" height="695" rx="4.5" fill="white" stroke="#D8D8D8"/>
<path d="M89.9999 0.833496C40.7532 0.833496 0.833252 40.7534 0.833252 90.0002C0.833252 139.247 40.7532 179.167 89.9999 179.167C139.247 179.167 179.167 139.247 179.167 90.0002C179.167 40.7534 139.247 0.833496 89.9999 0.833496Z" stroke="black" stroke-width="1.5" stroke-linecap="round" stroke-linejoin="round"/>
<path d="M21.083 146.585C21.083 146.585 40.9583 121.208 89.9999 121.208C139.042 121.208 158.926 146.585 158.926 146.585H21.083ZM89.9999 90C97.0945 90 103.898 87.1817 108.915 82.1651C113.932 77.1485 116.75 70.3445 116.75 63.25C116.75 56.1555 113.932 49.3515 108.915 44.3349C103.898 39.3183 97.0945 36.5 89.9999 36.5C82.9054 36.5 76.1014 39.3183 71.0848 44.3349C66.0682 49.3515 63.2499 56.1555 63.2499 63.25C63.2499 70.3445 66.0682 77.1485 71.0848 82.1651C76.1014 87.1817 82.9054 90 89.9999 90V90Z" stroke="black" stroke-width="1.5" stroke-linecap="round" stroke-linejoin="round"/>
</g>
<defs>
<clipPath id="clip0_0_11">
<rect width="1440" height="1234" fill="white" transform="translate(-740 -180)"/>
</clipPath>
</defs>
</svg>
